<?xml version="1.0" encoding="UTF-8"?>
<svg id="Layer_2" data-name="Layer 2" xmlns="http://www.w3.org/2000/svg" viewBox="0 0 64.5 134.82">
  <defs>
    <style>
      .cls-1 {
        fill: #496847;
      }

      .cls-1, .cls-2, .cls-3 {
        stroke-width: 0px;
      }

      .cls-2 {
        fill: #5e8099;
      }

      .cls-3 {
        fill: #486b86;
      }
    </style>
  </defs>
  <g id="Layer_1-2" data-name="Layer 1">
    <g>
      <path class="cls-1" d="M36.93,75.05c.79-.63,1.77-.7,2.7-.92.44-.11.86-.18,1.22-.51.21-.19.53-.28.81-.38.83-.28,1.48-.78,1.97-1.51.31-.47.64-.94,1.03-1.52.1.69-.12,1.21-.36,1.68-.51.99-1.22,1.84-1.97,2.66-.93,1.02-2.06,1.29-3.35,1.11-1.37-.2-2.53.49-2.79,1.85-.4,2.09-.91,4.16-1.45,6.22-.3,1.16-.76,2.28-1.15,3.41-.06.17-.1.34-.17.6,1.1-.13,2.17-.08,3.12-.72.6-.4,1.25-.33,1.89,0,.7.35,1.4.68,2.1,1.01.86.4,1.81,1.79,1.64,2.7-.14.74.15,1.34.26,2.01.03.2.1.4.1.61,0,.09-.11.24-.19.26-.08.02-.22-.08-.28-.16-.34-.53-.7-1.05-.99-1.61-.21-.41-.5-.64-.94-.75-.55-.13-1.09-.29-1.52-.74-.32-.34-.73-.13-1.08.05-.1.05-.18.16-.26.25-.35.42-.69.34-1.09.04-.91-.71-1.94-.71-3-.46-.39.09-.63.31-.64.75-.01.45-.06.89-.11,1.34-.32,2.43-.07,4.85.2,7.27.13,1.22.29,2.44.34,3.67.11,2.37.39,4.72.75,7.06.67,4.31,1.64,8.55,2.84,12.74.48,1.67,1.08,3.32,1.69,4.95.24.64.6,1.26,1.04,1.79.58.69.78,1.52,1.11,2.31.27.66.61,1.3.88,1.97.09.23.08.51.11.77-.31-.02-.69.08-.91-.07-.64-.44-1.21-.97-1.82-1.47-.25-.2-.49-.42-.76-.58-.56-.33-.85-.87-1.02-1.43-.82-2.7-1.62-5.42-2.37-8.14-.2-.71-.15-1.49-.32-2.21-.56-2.43-1.17-4.84-1.75-7.27-.11-.46-.2-.95-.18-1.42.04-.8-.27-1.46-.61-2.13-.28-.56-.55-1.14-.79-1.72-.52-1.27-1.58-1.96-2.76-2.43-.83-.33-1.65.06-2.42.39-.64.27-.65.32-1.04-.2-.45-.6-1.07-.35-1.58-.28-.93.12-.94.12-1.47-.56-.79-1.02-1.61-2-2.48-2.95-.2-.22-.65-.3-.98-.3-.5,0-1.01.12-1.51.2-.84.13-1.14-.07-1.16-.9-.02-.56-.18-1.05-.42-1.55-.41-.87-1.14-1.3-2-1.55-.58-.17-1.12,0-1.64.29-1.02.56-1.07.48-1.6-.52-.32-.59-.83-1.09-1.29-1.6-.89-.98-1.86-1.88-2.69-2.9-.79-.97-1.24-2.13-1.45-3.37-.21-1.22-.48-2.41-1.11-3.5-.24-.42-.37-.9-.6-1.48,1.41,1.57,2.69,3.03,4,4.46.87.96,2.02,1.53,3.15,2.06.66.31,1.47.24,2.21.02.48-.14,1.03-.4,1.47-.28.4.1.64.68,1.02.98.49.39,1.01.77,1.57,1.02.35.16.81.11,1.22.09.26,0,.52-.14.79-.18.64-.1,1.19.02,1.52.66.33.64.72,1.25,1.02,1.91.34.75.86,1.1,1.7,1.05.87-.05,1.75,0,2.62-.02.46-.01.79.14,1.13.43,1.26,1.07,2,2.45,2.56,3.97.47,1.3.94,2.6,1.44,3.89.15.38.42.72.62,1.09.32.6.61,1.22,1,1.99.06-.29.13-.44.12-.58-.09-.92-.18-1.85-.3-2.77-.12-.92-.3-1.83-.4-2.75-.2-1.85-.37-3.7-.54-5.55-.17-1.91-.32-3.82-.47-5.73-.03-.45-.02-.9-.01-1.36.05-1.66-.3-3.22-1.21-4.64-.23-.35-.43-.73-.61-1.11-1.17-2.57-3.24-4.46-4.96-6.61-.71-.88-1.31-1.74-1.49-2.91-.36-2.29-1.26-4.44-1.98-6.64-.05-.14-.05-.29-.08-.43-.07-.52-.15-1.05-.22-1.57.06-.02.11-.03.17-.05.53,1.93,1.15,3.82,2.21,5.53.28,1.32.55,2.64.85,3.95.05.23.16.47.31.65,1.1,1.31,2.23,2.6,3.34,3.9.25.29.57.55.77.87.84,1.32,1.65,2.65,2.47,3.98.02.03.1.03.21.06.01-.21.05-.41.04-.61-.14-2.52-.28-5.04-.45-7.55-.15-2.15-.34-4.3-.51-6.46-.04-.51-.06-1.02-.08-1.53.63-.41.51-1.01.4-1.6-.08-.41-.21-.8-.32-1.2.03-.47.06-.95.09-1.42.28.07.57.14.85.2-.02,2.13-.1,4.26.13,6.39.18,1.7.16,3.42.27,5.12.12,1.82.31,3.64.45,5.45.1,1.31.15,2.63.27,3.95.14,1.57.32,3.14.49,4.74.1-.06.14-.07.14-.09.5-1.44.98-2.88,1.5-4.31.22-.62.51-1.21.75-1.82.12-.3.24-.61.32-.93.74-3.03,1.46-6.06,2.19-9.09.37-1.55.77-3.09,1.14-4.64.08-.35.14-.71.14-1.07,0-1.62-.04-3.25-.06-4.87,0-.34,0-.69.02-1.03.35.07.7.14,1.05.2.75.14,1.46.36,1.86,1.1-.48,1.42-.94,2.85-1.46,4.26-.19.53-.53,1-.76,1.52-.4.87-.53,1.8-.77,2.78.21-.05.31-.06.38-.1,1.56-1.02,3.02-2.18,4.28-3.56,1.57-1.72,2.31-3.84,2.85-6.04.21-.84.39-1.69.04-2.55-.04-.1-.05-.25-.01-.36.39-1,0-1.96-.11-2.93-.06-.62-.13-1.25-.13-1.88,0-.24.17-.49.26-.73.17.04.37.04.51.14.9.67,1.97.81,3.03.94.16.55.04,1.08-.22,1.57-.64,1.22-1.32,2.42-1.97,3.64-.13.23-.23.48-.32.73-.49,1.51-.85,3.07-1.48,4.52-.6,1.36-1.16,2.76-2.12,3.95-1.17,1.44-2.43,2.78-4.19,3.45-1.05.4-1.48,1.09-1.53,2.14,0,.09,0,.18,0,.27.04-.05.08-.11.12-.16Z"/>
      <path class="cls-3" d="M28.93,65.6c.11.4.25.79.32,1.2.11.58.22,1.19-.4,1.6-.88-.12-1.54-.64-2.19-1.17-1.85-1.5-3.41-3.29-4.81-5.21-.12-.16-.26-.31-.39-.46-.06.24,0,.4.05.57.41,1.38.91,2.74,1.22,4.14.32,1.43.47,2.89.65,4.34.05.4.06.91-.38,1.13-.5.24-.71-.29-1.02-.54-.02-.02-.05-.03-.08-.05-1.05-1.71-1.68-3.6-2.21-5.53-.06.02-.11.03-.17.05.07.52.15,1.05.22,1.57-.07.14-.18.28-.21.43-.18,1.23-.43,2.43-1.1,3.5-.2.32-.39.82-.83.67-.31-.1-.65-.5-.73-.83-.25-.98-.48-1.99-.53-3-.11-2.19.04-4.38.28-6.56,0-.08-.02-.17-.06-.41-.13.31-.23.48-.29.66-.78,2.43-1.6,4.86-2.89,7.08-.44.75-1.03,1.4-1.56,2.09-.09.12-.21.21-.33.3-.3.22-.63.41-1,.24-.4-.18-.55-.56-.54-.97.01-.72.02-1.45.14-2.15.38-2.21,1.47-4.12,2.64-5.99.38-.61.79-1.21,1.11-1.9-.13.08-.27.14-.38.24-2.24,2.07-4.67,3.88-7.22,5.55-.42.28-.89.51-1.35.72-.36.17-.76.26-1.08-.1-.31-.34-.11-.7.07-1,1.64-2.81,3.66-5.22,6.8-6.45.22-.09.43-.18.61-.42-.8.14-1.61.24-2.41.42-1.69.36-3.41.37-5.12.31-.56-.02-1.14-.15-1.67-.33-.71-.24-.79-.67-.17-1.06.6-.39,1.28-.65,1.94-.94.38-.17.77-.28,1.22-.44-1.28-.28-2.48-.54-3.68-.82-.35-.08-.7-.21-1.01-.38-.52-.28-.55-.62-.09-.97.66-.5,1.42-.78,2.25-.83.27,0,.54,0,.81,0,1.86.06,3.72.11,5.58.21.52.03,1.04.22,1.55.33-.71-.06-1.43-.16-2.14-.17-1.65-.03-3.31-.07-4.96.02-.76.04-1.5.36-2.24.58-.13.04-.22.18-.34.27.12.11.23.3.37.32,1.26.22,2.53.44,3.8.59.4.05.82-.14,1.24-.15,2.43-.07,4.85-.12,7.28-.19.26,0,.69.16.7-.28,0-.14-.43-.3-.67-.43-.1-.05-.24,0-.36-.02-.9-.18-1.79-.36-2.69-.54h.75c.01-.08.02-.15.03-.23-.77-.17-1.55-.35-2.32-.52-2.46-.77-4.93-1.53-7.38-2.32-.45-.14-.89-.38-1.27-.66-.43-.32-.4-.64.07-.92.78-.46,1.66-.49,2.53-.45,2.45.13,4.78.84,7.08,1.64.28.1.57.19.86.27.05.01.11-.02.32-.08-.26-.2-.44-.34-.63-.48-1.57-1.1-3.16-2.18-4.71-3.32-.76-.55-1.35-1.28-1.75-2.14-.3-.65-.56-1.4-.05-1.95.51-.57,1.27-.21,1.84.06.72.35,1.37.85,2.05,1.29.1.06.2.13.3.19.11.04.22.09.33.13-.04-.12-.08-.25-.12-.37-.28-.67-.6-1.31-.81-2-.15-.51-.2-1.06-.2-1.6,0-1.07.76-1.75,1.82-1.62.46.06.94.24,1.34.48,1.26.77,2.19,1.86,2.89,3.16.4.74.77,1.49,1.15,2.24,0,.06.01.12.03.17.03.08.07.16.11.24.03-.09.08-.19.08-.28,0-.08-.06-.16-.09-.24-.29-1.35-.63-2.69-.85-4.05-.24-1.45-.37-2.91-.17-4.39.04-.3.06-.63.41-.74.39-.12.81-.1,1.07.26.29.41.55.86.76,1.32.8,1.76,1.39,3.58,1.76,5.48.03.14.06.29.13.58.11-.9.15-1.65.3-2.37.3-1.42.88-2.75,1.62-3.99.11-.18.23-.36.39-.5.65-.59,1.4-.35,1.6.5.05.2.1.41.1.62.06,2.2-.05,4.38-.44,6.55-.16.9-.3,1.8-.34,2.72.51-.91,1.01-1.82,1.55-2.72.58-.97,1.32-1.79,2.33-2.34.47-.26,1.02-.62,1.51-.27.56.39.35,1.04.18,1.58-.19.6-.45,1.17-.69,1.76-.11.27-.24.53-.39.87.47.04.68-.22.92-.41.99-.77,2.08-1.32,3.29-1.62.52-.13,1.13-.37,1.55.26.29.47.17.93-.05,1.38-1.39,2.04-3.35,3.38-5.5,4.49-.11-.47.33-.54.56-.7,1.3-.88,2.47-1.91,3.52-3.06.28-.31.51-.67.72-1.03.08-.13.1-.38.03-.48-.07-.09-.31-.09-.47-.07-1.15.2-2.13.75-3.05,1.45-1.31.99-2.35,2.32-3.88,3.03-.13.06-.23.19-.33.3-.48.53-.97,1.06-1.43,1.62-.11.13-.19.41-.13.52.14.24.38.17.63.04,1.04-.53,2.09-1.04,3.15-1.53.21-.1.46-.08.69-.12.24.03.49.1.73.07,1.36-.14,2.71-.3,4.07-.46.32-.05.64-.09.96-.14,1.29.1,2.58.17,3.86.31.47.05.94.22,1.36.43.54.27.59.63.16,1.07-.27.27-.61.49-.94.68-1.35.76-2.85,1.1-4.35,1.43-.23.05-.45.13-.68.2-.36.06-.72.11-1.09.17-1.63.07-3.26.14-4.68.2,1.4.26,2.98.56,4.57.85.33.07.66.15.99.22.95.43,1.92.82,2.85,1.29.64.32,1.26.7,1.83,1.12.8.59.7,1.21-.23,1.58-.3.12-.65.2-.96.17-1.16-.11-2.31-.29-3.46-.42-.19-.02-.38.03-.57.05-.13-.53-.55-.3-.87-.35-.04-.04-.08-.1-.13-.12-1.71-.65-3.42-1.3-5.14-1.94-.2-.07-.42-.08-.64-.12,1.19.86,2.41,1.61,3.61,2.39.7.45,1.38.95,2.07,1.43l.91.72c.22.28.46.54.65.85.29.48.63.96.78,1.49.22.76-.19,1.21-.99,1.2-.21,0-.41-.07-.62-.1-.28-.07-.57-.14-.85-.2-1.07-.83-2.15-1.67-3.18-2.47,1.02,1.28,2.06,2.59,3.09,3.89ZM9.14,40.14c-.5,0-.93.25-.95.72-.02.54-.04,1.1.09,1.61.35,1.39,1.07,2.63,2.04,3.66,1.36,1.44,2.84,2.77,4.29,4.13.3.29.64.55.99.78.12.08.37.09.48.01.1-.07.16-.32.12-.45-.18-.54-.37-1.08-.61-1.6-.58-1.29-1.26-2.54-1.78-3.85-.66-1.66-1.62-3.08-2.97-4.23-.45-.38-.91-.81-1.7-.79ZM32.16,50.35c-1.4.14-2.97.29-4.55.45-1.81.19-3.49.81-5.14,1.55-.17.08-.36.37-.34.53.02.17.28.4.46.43.77.11,1.55.18,2.32.2,2.07.03,4.13-.15,6.15-.56,1.61-.33,3.22-.71,4.67-1.56.15-.09.25-.23.38-.35-.15-.12-.3-.26-.46-.37-.07-.04-.17-.03-.26-.04-1.01-.09-2.03-.17-3.23-.28ZM18.26,45.48c.07,1.4.14,2.81.22,4.21.01.17.05.4.16.5.21.18.48.36.75.41.38.07.39-.33.45-.56.15-.58.25-1.17.35-1.75.28-1.56.56-3.11.82-4.67.14-.88.31-1.77.32-2.66.02-1.16-.07-2.33-.16-3.49-.03-.41-.3-.48-.61-.21-.07.06-.14.12-.18.2-.51,1.02-1.16,1.99-1.49,3.06-.49,1.6-.71,3.27-.63,4.96ZM18.12,49.65c-.17-1.28-.4-2.66-.53-4.06-.24-2.5-.92-4.87-1.88-7.17-.22-.52-.49-1.03-.78-1.52-.08-.14-.28-.2-.42-.3-.06.15-.18.3-.18.45,0,.86-.26,1.7-.03,2.58.13.51-.02,1.09.07,1.61.25,1.35.54,2.69.87,4.03.4,1.62.7,3.28,1.41,4.82.21.47.32.49,1.08.36.45-.08.37-.39.4-.79ZM1.01,50.13c0,.08-.01.16-.02.24.29.14.57.32.88.42,2.77.86,5.55,1.71,8.32,2.56,1.28.39,2.66.39,3.88,1.02.07.04.18.03.26,0,.25-.11.37-1.05.14-1.19-.54-.32-1.07-.69-1.66-.89-2.35-.81-4.7-1.62-7.14-2.1-1.31-.26-2.61-.3-3.93-.26-.25,0-.49.14-.73.21ZM5.05,43.66c-.35.08-.52.23-.49.53.03.29.07.6.19.86.42.9,1.15,1.55,1.93,2.1,2.56,1.81,5.18,3.55,7.78,5.31.12.08.4.12.47.05.13-.13.22-.37.2-.54-.02-.19-.16-.4-.3-.54-.69-.67-1.38-1.33-2.1-1.96-.61-.53-1.27-.99-1.89-1.51-1.3-1.1-2.56-2.25-3.9-3.31-.55-.43-1.26-.67-1.89-.99ZM10.78,70.66c.34-.27.7-.43.89-.71.67-.99,1.38-1.97,1.9-3.04,1.2-2.52,2.02-5.19,2.78-7.87.05-.16-.06-.36-.1-.54-.16.09-.38.14-.48.28-1.64,2.4-3.24,4.82-4.4,7.51-.52,1.2-.63,2.48-.81,3.75-.02.17.13.37.22.63ZM4.55,66.35c.34-.17.71-.31,1.03-.51,2.03-1.27,3.96-2.69,5.8-4.23,1.12-.94,2.23-1.9,3.33-2.87.11-.1.16-.28.24-.42-.14,0-.29-.06-.42-.02-1.92.61-3.85,1.26-5.47,2.44-1.2.87-2.2,2.02-3.23,3.1-.63.67-1.14,1.45-1.27,2.5ZM28.69,66.93c-.25-.5-.44-1.06-.78-1.5-.79-1.05-1.6-2.1-2.5-3.05-1.4-1.49-2.88-2.9-4.32-4.36-.28-.29-.46-.28-.73,0-.27.29-.3.52-.06.87,1,1.46,1.99,2.91,3.15,4.26,1.22,1.42,2.57,2.68,4.04,3.82.17.13.33.26.52.35.4.19.58.07.67-.39ZM17.61,71.06c.57-.63.82-1.3,1.01-1.98.43-1.58.31-3.22.22-4.82-.1-1.62-.58-3.22-.94-4.81-.04-.19-.37-.31-.57-.47-.1.15-.28.3-.29.46-.08,1.38-.16,2.75-.19,4.13-.03,1.32-.05,2.65,0,3.97.04.92.22,1.84.37,2.75.04.25.22.47.37.77ZM30.93,63.48c-.09-.19-.15-.33-.21-.47-.38-.93-1.13-1.51-1.88-2.13-2.02-1.68-4.31-2.93-6.58-4.2-.22-.12-.47-.33-.69.04-.17.29-.23.54.07.79.39.32.78.66,1.17.98,1.47,1.23,2.93,2.46,4.41,3.68.82.67,1.71,1.22,2.73,1.52.2.06.41.12.61.09.14-.02.25-.2.37-.31ZM34.63,58.35c.04-.07.08-.14.12-.21-.14-.07-.27-.14-.41-.2-1.19-.58-2.34-1.22-3.57-1.71-2.02-.8-4.18-1-6.32-1.25-.59-.07-1.2-.02-1.81,0-.12,0-.23.14-.34.22.09.1.16.26.27.3.78.3,1.57.6,2.37.87,1.93.66,3.82,1.43,5.85,1.76,1,.16,2.01.31,3.02.42.27.03.55-.13.83-.2ZM2.42,58.7c1.6.38,3.08.33,4.54.17,1.54-.17,3.06-.53,4.57-.84.96-.2,1.91-.47,2.87-.71.37-.09.47-.29.33-.66-.2-.56-.38-.69-1.01-.56-.85.17-1.69.45-2.54.47-1.32.03-2.63.14-3.92.4-1.64.33-3.25.77-4.83,1.75ZM26.35,42.9c-.08-.5-.28-.67-.71-.54-.14.04-.3.1-.4.2-.64.58-1.36,1.1-1.88,1.78-1.4,1.82-2.3,3.92-3.14,6.04-.13.33-.13.56.19.77.3.19.51.07.69-.16.36-.47.72-.95,1.07-1.43.99-1.35,2.03-2.67,2.95-4.06.52-.79.82-1.71,1.23-2.58ZM22.58,70.49c.02-.26.05-.4.05-.54,0-.21.01-.42-.02-.63-.41-2.58-1.15-5.07-2-7.53-.31-.88-.58-1.76-.91-2.63-.06-.15-.29-.24-.44-.36-.08.14-.24.29-.23.42.02.41.09.83.17,1.24.5,2.52,1.07,5.03,2,7.44.34.87.59,1.8,1.38,2.59ZM15.48,58.1s.05-.02.05-.03c0-.02,0-.04,0-.07-.03.01-.06.03-.08.04.01.02.02.04.04.06Z"/>
      <path class="cls-3" d="M33.34,35.62c-.43-.68-.96-1.32-1.26-2.05-.46-1.1-.73-2.29-1.13-3.42-.39-1.1-.8-2.2-1.28-3.26-.38-.81-.88-1.57-1.35-2.34-.89-1.43-1.78-2.86-2.7-4.26-1.97-3.02-3.55-6.21-4.34-9.76-.33-1.5-.61-3.01-.41-4.55.07-.53.21-1.06.36-1.57.14-.47.52-.69.98-.58.52.12,1.05.28,1.51.55,1.66.98,2.79,2.46,3.62,4.16.67,1.37,1.28,2.77,2,4.15-.02-.39-.04-.79-.07-1.18-.09-1.14-.28-2.27-.26-3.41.04-1.89.24-3.78.85-5.58.19-.56.44-1.13.77-1.62.81-1.18,2.18-1.21,3-.04.42.6.72,1.32.92,2.03.44,1.52.44,3.08.39,4.65-.01.32,0,.65,0,1.18.29-.57.5-.99.72-1.4.77-1.47,1.65-2.87,2.86-4.03.17-.16.35-.33.56-.45.61-.37,1.23-.24,1.67.33.53.69.58,1.5.57,2.31-.02,1.37-.38,2.67-.77,3.97-.44,1.47-.92,2.93-1.38,4.39,0,.13-.02.25-.03.38.05-.09.1-.18.15-.27.47-.76.92-1.54,1.43-2.28,1.04-1.51,2.04-3.06,3.2-4.47.69-.84,1.64-1.49,2.52-2.17.43-.33.96-.51,1.53-.34.73.22.98.62.76,1.36-.63,2.15-1.25,4.31-2.19,6.35-.79,1.71-1.62,3.4-2.44,5.12.38.12.58-.25.83-.48,1.26-1.12,2.49-2.28,3.76-3.38.59-.51,1.24-.96,1.89-1.39.99-.66,2.1-.87,3.28-.76.95.09,1.26.56.97,1.47-.33,1.05-.9,1.98-1.61,2.8-1.53,1.77-3.11,3.51-4.68,5.25-.4.44-.88.81-1.33,1.22.04.07.09.14.13.21.28-.11.56-.2.82-.33,2.29-1.2,4.55-2.47,6.88-3.59,1.24-.6,2.58-.97,3.88-1.42.19-.07.41-.09.62-.09.8,0,1.04.37.74,1.09-.14.33-.31.66-.52.95-1.42,1.97-3.12,3.64-5.19,4.94-2.99,1.87-6.08,3.54-9.38,4.81-.14.05-.27.12-.57.25.36.02.55.06.73.04,2.17-.28,4.34-.6,6.52-.83,2.85-.3,5.7-.4,8.52.28.91.22,1.79.52,2.57,1.06.2.14.4.28.56.44.5.49.49.94-.07,1.35-.36.26-.78.48-1.2.59-2.06.55-4.13,1.07-6.2,1.59-.14.04-.28.07-.34.08,1.61.34,3.28.68,4.94,1.05,1.12.25,2.19.69,3.11,1.39.37.28.86.56.73,1.14-.12.54-.58.84-1.09.98-2.16.59-4.33.95-6.59.68-1.85-.23-3.71-.33-5.55-.6-3.75-.55-7.46-1.28-11.06-2.51-.31-.11-.62-.22-.92-.37-.32-.15-.57-.15-.92.01-.45.21-.97.32-1.47.35-.89.05-1.79,0-2.68,0-.29-.06-.57-.12-.86-.18ZM31.62,22.17c-.12-.44-.23-1.03-.43-1.6-.65-1.84-1.31-3.68-2.01-5.5-.9-2.32-1.77-4.66-3.04-6.82-.76-1.3-1.75-2.35-3.03-3.13-.83-.5-1.31-.28-1.36.7-.05.9-.1,1.82.01,2.71.34,2.6,1.14,5.08,2.27,7.45.89,1.88,1.97,3.64,3.11,5.37.81,1.23,1.42,2.57,2.14,3.86.38.68.77,1.36,1.21,2,.12.17.47.23.71.23.34,0,.29-.32.29-.56.05-1.53-.11-3.06.13-4.72ZM40.55,5.34c-.03-.19-.05-.55-.15-.89-.28-.95-.76-1.07-1.47-.42-1.07,1-1.82,2.22-2.52,3.48-1.48,2.64-2.36,5.51-3.08,8.41-.51,2.02-.81,4.1-1.1,6.17-.23,1.59-.53,3.18-.21,4.81.1.51.36.74.75.89.34.13.95-.26,1.11-.68.87-2.36,1.86-4.68,2.46-7.13.1-.41.21-.81.34-1.21.98-2.93,1.98-5.86,2.93-8.8.47-1.45.91-2.92.96-4.64ZM53.33,12.16c-1.02.16-1.99.25-2.78.88-1.22.97-2.42,1.96-3.65,2.91-1.64,1.25-2.96,2.82-4.28,4.37-1.39,1.64-2.65,3.4-3.92,5.14-.57.77-1.02,1.63-1.54,2.43-.26.4-.09.65.13,1.03.28.48.79.25,1.09.52.31.28.54.16.76-.1,1.39-1.62,3.16-2.83,4.62-4.39,2.4-2.57,4.99-4.95,7.24-7.66.94-1.13,1.84-2.29,2.72-3.46.23-.3.34-.7.48-1.06.1-.24.01-.4-.26-.46-.23-.05-.47-.11-.62-.15ZM35.51,28.26c.19-.13.39-.22.52-.37.21-.25.37-.54.55-.82,1.13-1.76,2.1-3.62,3.48-5.23,1.25-1.45,2.42-2.97,3.28-4.7.79-1.59,1.69-3.13,2.35-4.77.83-2.05,1.46-4.18,2.17-6.27.12-.34-.06-.56-.4-.46-.34.1-.71.23-.97.46-.98.88-2.03,1.72-2.84,2.74-1.04,1.3-1.93,2.74-2.81,4.17-1.34,2.2-2.53,4.49-3.38,6.93-.48,1.39-.93,2.79-1.46,4.15-.42,1.09-.96,2.13-1.43,3.2-.06.14-.1.42-.03.47.29.2.62.33.97.5ZM43.94,33.38s0,.05,0,.07c.9,0,1.81.04,2.71,0,1.58-.09,3.16-.24,4.74-.34,1.47-.09,2.94-.13,4.4-.19.09,0,.18,0,.27-.02,2.08-.57,4.16-1.14,6.23-1.73.21-.06.39-.23.58-.35-.16-.2-.31-.41-.48-.59-.08-.08-.21-.12-.32-.17-1.54-.75-3.16-1.11-4.87-1.1-2.46.01-4.92-.11-7.36.35-1.55.29-3.13.5-4.69.74-1.09.17-2.19.33-3.27.55-.58.12-1.14.34-1.72.5-.28.08-.4.25-.38.52.05.53.14,1.07.17,1.6.03.37.24.45.55.42,1.13-.08,2.27-.16,3.4-.25ZM31.57,20.33c.07,0,.15.01.22.02.08-.4.16-.79.24-1.19.36-1.73.74-3.45,1.09-5.18.26-1.26.82-2.42.95-3.74.19-1.94.21-3.88.1-5.81-.05-.82-.33-1.65-.63-2.42-.16-.42-.56-.78-.93-1.06-.5-.38-1.06-.27-1.42.24-.31.44-.58.92-.77,1.42-.61,1.61-.77,3.32-.91,5.02-.18,2.2.14,4.37.58,6.52.43,2.08.97,4.13,1.47,6.19ZM63.57,37.26c-.9-.94-1.84-1.4-2.82-1.57-.75-.13-1.44-.38-2.15-.58-.52-.15-1.04-.29-1.57-.38-1.03-.17-2.06-.33-3.1-.44-.77-.08-1.56-.11-2.33-.07-1.31.07-2.62.26-3.93.31-1.53.06-3.07.03-4.6,0-.57,0-1.13-.11-1.69-.15-.51-.03-1.03-.07-1.53,0-.25.03-.6.26-.67.47-.12.35.28.37.53.46.11.04.22.09.34.12,1.8.58,3.63.98,5.49,1.31,1.94.34,3.87.72,5.84.88.6.05,1.19.13,1.78.2,1.1.11,2.2.3,3.3.31,1.41.02,2.82-.04,4.22-.19.91-.1,1.79-.42,2.9-.69ZM39.54,30.23c.04.07.08.13.12.2.32-.12.65-.24.97-.37.72-.3,1.42-.65,2.15-.92.9-.33,1.86-.5,2.72-.91,3.43-1.62,6.77-3.38,9.85-5.61,1.61-1.16,2.87-2.63,4-4.23.11-.16.17-.36.25-.55-.19,0-.39-.02-.58.01-1.87.39-3.59,1.19-5.28,2.04-2.28,1.14-4.52,2.38-6.74,3.64-.9.51-1.86.94-2.6,1.75-1.39,1.5-2.88,2.91-4.33,4.36-.19.19-.36.39-.54.58Z"/>
      <path class="cls-3" d="M48.64,54.96c-1.07-.13-2.13-.27-3.03-.94-.13-.1-.34-.09-.51-.14-.42-2.01-.5-4.05-.43-6.1,0-.24.04-.48.09-.71.1-.42.3-.67.82-.62.85.09,1.65-.04,2.38-.6.28-.22.74-.23,1.12-.27.34-.03.75.08.78.45.05.55.41.68.81.83.08.03.17.07.25.11.68.3.77.44.56,1.17-.17.61-.34,1.22-.59,1.8-.61,1.41-1.26,2.8-1.89,4.19-.12.27-.24.55-.36.82ZM48.25,53.7c.09-.06.34-.17.48-.35.17-.2.27-.47.37-.72.6-1.54,1.17-3.08,1.78-4.62.13-.32,0-.38-.26-.51-.42-.21-.92-.44-1.14-.8-.26-.42-.47-.45-.86-.31-.31.11-.65.15-.93.31-.47.26-.95.32-1.47.32-.92,0-1.01.06-.97.97.08,1.64.24,3.28.35,4.92.02.31.18.4.46.44.68.1,1.35.22,2.2.36Z"/>
      <path class="cls-1" d="M33.34,35.62c.29.06.58.12.86.18-.3,1.46-.61,2.92-.88,4.38-.59,3.13-1.17,6.27-1.75,9.4-.32.05-.64.09-.96.14.17-.9.34-1.79.5-2.69.08-.46.13-.93.19-1.4.22-.45.35-.91.05-1.38.12-.15.31-.28.34-.44.22-1.05.38-2.12.6-3.17.34-1.67.7-3.34,1.06-5.01Z"/>
      <path class="cls-3" d="M40.53,63.47c-.4-.74-1.11-.96-1.86-1.1-.35-.07-.7-.13-1.05-.2-.03-.32-.02-.66-.09-.97-.14-.58-.33-1.15-.5-1.72-.27-.9-.18-1.09.63-1.59.2-.13.39-.37.46-.6.17-.61.57-1,1.12-1.2.76-.26,1.53-.52,2.32-.64.77-.11,1.37.54,1.2,1.28-.34,1.48-.75,2.95-1.17,4.41-.18.63-.46,1.23-.71,1.84-.08.18-.22.33-.34.49ZM41.14,55.87c-.44.17-1.14.42-1.83.7-.44.18-.59.52-.61,1-.04,1.31-.1,2.63-.45,3.9-.12.43.07.5.43.55.4.06.82.16,1.17.35.39.21.52.1.67-.25.72-1.78,1.27-3.6,1.59-5.49.09-.56-.09-.76-.98-.77Z"/>
      <path class="cls-1" d="M29.36,58.58c.32.05.75-.18.87.35-.06.67-.13,1.34-.19,2.01-.3-.24-.61-.48-.91-.72.08-.55.15-1.09.23-1.64Z"/>
      <path class="cls-2" d="M8.98,53.67c.77.17,1.55.35,2.32.52-.01.08-.02.15-.03.23h-.75,0c-.52-.11-1.03-.3-1.55-.33-1.86-.1-3.72-.14-5.58-.21-.27,0-.54,0-.81,0,1.36-.34,2.74-.17,4.11-.14.57.01,1.13.11,1.7.12.2,0,.4-.12.6-.19Z"/>
      <path class="cls-1" d="M29.89,53.88c.36-.06.72-.11,1.09-.17-.06.31-.11.62-.17.93-.04.04-.05.08-.03.13,0,.13,0,.25-.01.38-.33-.07-.66-.15-.99-.22.04-.35.08-.7.11-1.05Z"/>
      <path class="cls-2" d="M9.14,40.14c.79-.02,1.25.41,1.7.79,1.35,1.15,2.31,2.57,2.97,4.23.52,1.31,1.19,2.56,1.78,3.85.24.52.43,1.06.61,1.6.04.13-.02.38-.12.45-.11.08-.36.07-.48-.01-.35-.23-.68-.49-.99-.78-1.44-1.36-2.93-2.69-4.29-4.13-.97-1.03-1.69-2.27-2.04-3.66-.13-.51-.11-1.07-.09-1.61.02-.47.45-.73.95-.72Z"/>
      <path class="cls-2" d="M32.16,50.35c1.21.1,2.22.19,3.23.28.09,0,.2,0,.26.04.16.11.31.24.46.37-.13.12-.23.27-.38.35-1.45.85-3.05,1.23-4.67,1.56-2.03.41-4.08.6-6.15.56-.78-.01-1.55-.09-2.32-.2-.18-.02-.44-.26-.46-.43-.02-.16.17-.45.34-.53,1.64-.74,3.33-1.36,5.14-1.55,1.57-.17,3.15-.31,4.55-.45Z"/>
      <path class="cls-2" d="M18.26,45.48c-.08-1.69.14-3.36.63-4.96.33-1.07.98-2.05,1.49-3.06.04-.08.11-.14.18-.2.31-.27.58-.2.61.21.09,1.16.18,2.33.16,3.49-.02.89-.18,1.78-.32,2.66-.25,1.56-.54,3.11-.82,4.67-.11.59-.21,1.18-.35,1.75-.06.23-.07.63-.45.56-.27-.05-.53-.23-.75-.41-.11-.1-.15-.33-.16-.5-.08-1.4-.15-2.81-.22-4.21Z"/>
      <path class="cls-2" d="M18.12,49.65c-.03.4.06.72-.4.79-.76.13-.87.11-1.08-.36-.71-1.54-1.01-3.19-1.41-4.82-.33-1.33-.62-2.68-.87-4.03-.1-.52.06-1.1-.07-1.61-.23-.88.04-1.72.03-2.58,0-.15.12-.3.18-.45.14.1.34.17.42.3.28.49.56,1,.78,1.52.97,2.3,1.65,4.67,1.88,7.17.13,1.39.36,2.78.53,4.06Z"/>
      <path class="cls-2" d="M1.01,50.13c.24-.07.49-.2.73-.21,1.32-.04,2.63,0,3.93.26,2.45.49,4.79,1.3,7.14,2.1.59.2,1.12.57,1.66.89.23.14.1,1.07-.14,1.19-.07.03-.19.04-.26,0-1.22-.63-2.6-.63-3.88-1.02-2.77-.85-5.55-1.7-8.32-2.56-.31-.1-.59-.28-.88-.42,0-.08.01-.16.02-.24Z"/>
      <path class="cls-2" d="M5.05,43.66c.63.32,1.34.56,1.89.99,1.34,1.05,2.59,2.21,3.9,3.31.62.52,1.28.98,1.89,1.51.72.63,1.41,1.29,2.1,1.96.14.14.28.35.3.54.02.18-.08.41-.2.54-.07.07-.35.04-.47-.05-2.6-1.76-5.21-3.5-7.78-5.31-.77-.55-1.51-1.2-1.93-2.1-.12-.26-.16-.57-.19-.86-.03-.3.14-.45.49-.53Z"/>
      <path class="cls-2" d="M10.78,70.66c-.1-.26-.25-.46-.22-.63.18-1.27.29-2.55.81-3.75,1.16-2.68,2.76-5.11,4.4-7.51.09-.14.32-.19.48-.28.04.18.15.38.1.54-.77,2.68-1.58,5.35-2.78,7.87-.51,1.07-1.23,2.05-1.9,3.04-.19.28-.54.44-.89.71Z"/>
      <path class="cls-2" d="M4.55,66.35c.14-1.05.64-1.83,1.27-2.5,1.03-1.08,2.03-2.23,3.23-3.1,1.63-1.19,3.56-1.83,5.47-2.44.12-.04.28.01.42.02-.08.14-.12.32-.24.42-1.1.96-2.2,1.93-3.33,2.87-1.84,1.54-3.76,2.96-5.8,4.23-.32.2-.69.34-1.03.51Z"/>
      <path class="cls-2" d="M28.69,66.93c-.09.46-.27.57-.67.39-.19-.09-.36-.22-.52-.35-1.47-1.14-2.82-2.39-4.04-3.82-1.16-1.35-2.15-2.8-3.15-4.26-.24-.34-.21-.57.06-.87.26-.29.45-.3.73,0,1.43,1.46,2.92,2.87,4.32,4.36.9.96,1.71,2,2.5,3.05.33.44.52,1,.78,1.5Z"/>
      <path class="cls-2" d="M17.61,71.06c-.15-.31-.33-.53-.37-.77-.15-.91-.33-1.83-.37-2.75-.06-1.32-.04-2.65,0-3.97.03-1.38.11-2.75.19-4.13,0-.16.19-.31.29-.46.2.15.52.28.57.47.36,1.6.85,3.2.94,4.81.09,1.59.21,3.23-.22,4.82-.19.68-.44,1.36-1.01,1.98Z"/>
      <path class="cls-2" d="M30.93,63.48c-.12.11-.23.28-.37.31-.19.03-.41-.03-.61-.09-1.02-.3-1.92-.86-2.73-1.52-1.48-1.21-2.94-2.45-4.41-3.68-.39-.33-.77-.66-1.17-.98-.3-.25-.24-.5-.07-.79.22-.36.47-.16.69-.04,2.28,1.27,4.56,2.52,6.58,4.2.75.62,1.5,1.2,1.88,2.13.06.14.12.27.21.47Z"/>
      <path class="cls-2" d="M25.8,50.1c-.23.04-.49.02-.7.12-1.06.49-2.11,1-3.15,1.53-.25.12-.48.2-.63-.04-.07-.12.02-.39.13-.52.46-.55.95-1.08,1.43-1.62.1-.11.2-.24.33-.3,1.53-.71,2.57-2.04,3.88-3.03.93-.7,1.9-1.25,3.05-1.45.16-.03.4-.02.47.07.08.1.05.35-.03.48-.21.36-.44.72-.72,1.03-1.06,1.15-2.22,2.18-3.52,3.06-.24.16-.68.22-.56.7,0,0,.01,0,.01,0Z"/>
      <path class="cls-2" d="M34.63,58.35c-.28.07-.56.23-.83.2-1.01-.11-2.01-.25-3.02-.42-2.02-.33-3.92-1.1-5.85-1.76-.8-.27-1.58-.57-2.37-.87-.11-.04-.18-.2-.27-.3.11-.08.23-.22.34-.22.6-.02,1.21-.07,1.81,0,2.14.25,4.3.45,6.32,1.25,1.22.49,2.38,1.13,3.57,1.71.14.07.27.13.41.2-.04.07-.08.14-.12.21Z"/>
      <path class="cls-2" d="M2.42,58.7c1.58-.97,3.19-1.41,4.83-1.75,1.29-.26,2.6-.37,3.92-.4.85-.02,1.7-.3,2.54-.47.63-.12.81,0,1.01.56.14.38.04.57-.33.66-.96.24-1.91.51-2.87.71-1.52.31-3.04.67-4.57.84-1.45.16-2.93.21-4.54-.17Z"/>
      <path class="cls-2" d="M10.52,54.42c.9.18,1.79.36,2.69.54.12.02.26-.03.36.02.25.12.68.29.67.43-.01.45-.44.27-.7.28-2.43.07-4.85.12-7.28.19-.41.01-.84.2-1.24.15-1.27-.15-2.54-.37-3.8-.59-.14-.02-.25-.21-.37-.32.11-.09.21-.23.34-.27.74-.22,1.48-.54,2.24-.58,1.65-.09,3.3-.04,4.96-.02.71.01,1.43.11,2.14.17,0,0,0,0,0,0Z"/>
      <path class="cls-2" d="M26.35,42.9c-.4.86-.71,1.79-1.23,2.58-.92,1.4-1.96,2.72-2.95,4.06-.35.48-.71.96-1.07,1.43-.18.23-.39.36-.69.16-.32-.2-.32-.44-.19-.77.84-2.12,1.74-4.22,3.14-6.04.52-.67,1.24-1.2,1.88-1.78.11-.1.26-.15.4-.2.43-.13.62.04.71.54Z"/>
      <path class="cls-2" d="M22.58,70.49c-.79-.79-1.05-1.72-1.38-2.59-.94-2.4-1.5-4.91-2-7.44-.08-.41-.15-.82-.17-1.24,0-.14.15-.28.23-.42.15.12.38.21.44.36.32.87.6,1.75.91,2.63.86,2.46,1.6,4.95,2,7.53.03.21.02.42.02.63,0,.14-.02.27-.05.54Z"/>
      <path class="cls-2" d="M15.48,58.1s-.02-.04-.04-.06c.03-.01.06-.03.08-.04,0,.02.01.05,0,.07,0,.02-.03.02-.05.03Z"/>
      <path class="cls-2" d="M31.62,22.17c-.24,1.66-.08,3.2-.13,4.72,0,.23.04.55-.29.56-.24,0-.59-.07-.71-.23-.45-.64-.83-1.32-1.21-2-.72-1.28-1.34-2.63-2.14-3.86-1.14-1.73-2.22-3.49-3.11-5.37-1.12-2.37-1.93-4.84-2.27-7.45-.11-.89-.06-1.81-.01-2.71.05-.98.53-1.21,1.36-.7,1.28.78,2.27,1.83,3.03,3.13,1.27,2.16,2.14,4.49,3.04,6.82.7,1.82,1.36,3.66,2.01,5.5.2.56.31,1.15.43,1.6Z"/>
      <path class="cls-2" d="M40.55,5.34c-.05,1.72-.5,3.19-.96,4.64-.95,2.94-1.95,5.86-2.93,8.8-.13.4-.24.8-.34,1.21-.6,2.45-1.59,4.77-2.46,7.13-.15.42-.77.81-1.11.68-.39-.15-.65-.38-.75-.89-.32-1.63-.01-3.22.21-4.81.3-2.07.6-4.15,1.1-6.17.73-2.9,1.6-5.78,3.08-8.41.71-1.26,1.45-2.49,2.52-3.48.71-.66,1.19-.53,1.47.42.1.34.12.7.15.89Z"/>
      <path class="cls-2" d="M53.33,12.16c.16.04.39.1.62.15.27.06.35.22.26.46-.14.36-.25.75-.48,1.06-.88,1.17-1.78,2.33-2.72,3.46-2.25,2.71-4.85,5.09-7.24,7.66-1.46,1.56-3.23,2.77-4.62,4.39-.22.26-.45.38-.76.1-.3-.27-.8-.03-1.09-.52-.22-.37-.39-.62-.13-1.03.52-.8.98-1.66,1.54-2.43,1.27-1.74,2.53-3.5,3.92-5.14,1.31-1.55,2.64-3.12,4.28-4.37,1.24-.94,2.43-1.94,3.65-2.91.79-.63,1.76-.72,2.78-.88Z"/>
      <path class="cls-2" d="M35.51,28.26c-.35-.17-.68-.3-.97-.5-.07-.04-.03-.33.03-.47.47-1.07,1.01-2.12,1.43-3.2.53-1.37.97-2.77,1.46-4.15.86-2.44,2.04-4.73,3.38-6.93.87-1.43,1.76-2.87,2.81-4.17.82-1.02,1.86-1.86,2.84-2.74.26-.23.63-.36.97-.46.34-.1.52.12.4.46-.71,2.1-1.34,4.22-2.17,6.27-.66,1.64-1.57,3.18-2.35,4.77-.86,1.73-2.03,3.26-3.28,4.7-1.39,1.6-2.35,3.47-3.48,5.23-.18.28-.34.57-.55.82-.12.15-.33.24-.52.37Z"/>
      <path class="cls-2" d="M43.94,33.38c-1.13.08-2.27.16-3.4.25-.31.02-.52-.05-.55-.42-.04-.54-.12-1.07-.17-1.6-.03-.27.09-.45.38-.52.58-.16,1.13-.39,1.72-.5,1.08-.21,2.18-.37,3.27-.55,1.56-.25,3.13-.45,4.69-.74,2.44-.46,4.9-.34,7.36-.35,1.71,0,3.33.35,4.87,1.1.11.05.24.09.32.17.17.18.32.39.48.59-.19.12-.37.29-.58.35-2.07.59-4.15,1.16-6.23,1.73-.09.02-.18.02-.27.02-1.47.06-2.94.11-4.4.19-1.58.09-3.16.25-4.74.34-.9.05-1.81,0-2.71,0,0-.02,0-.05,0-.07Z"/>
      <path class="cls-2" d="M31.57,20.33c-.49-2.06-1.04-4.11-1.47-6.19-.44-2.14-.76-4.32-.58-6.52.14-1.7.29-3.41.91-5.02.19-.5.46-.98.77-1.42.36-.51.93-.62,1.42-.24.37.28.76.65.93,1.06.3.77.59,1.6.63,2.42.11,1.93.09,3.87-.1,5.81-.13,1.32-.69,2.48-.95,3.74-.35,1.73-.73,3.45-1.09,5.18-.08.4-.16.79-.24,1.19-.07,0-.15-.01-.22-.02Z"/>
      <path class="cls-2" d="M63.57,37.26c-1.11.27-1.99.59-2.9.69-1.4.15-2.81.2-4.22.19-1.1-.01-2.2-.2-3.3-.31-.59-.06-1.19-.15-1.78-.2-1.97-.16-3.9-.53-5.84-.88-1.86-.33-3.7-.73-5.49-1.31-.11-.04-.22-.09-.34-.12-.25-.08-.64-.11-.53-.46.07-.21.42-.44.67-.47.5-.07,1.02-.03,1.53,0,.57.03,1.13.14,1.69.15,1.53.02,3.07.05,4.6,0,1.31-.05,2.62-.24,3.93-.31.77-.04,1.56,0,2.33.07,1.04.1,2.07.27,3.1.44.53.09,1.05.23,1.57.38.71.21,1.4.46,2.15.58.98.17,1.92.63,2.82,1.57Z"/>
      <path class="cls-2" d="M39.54,30.23c.18-.19.35-.39.54-.58,1.45-1.45,2.94-2.86,4.33-4.36.75-.81,1.7-1.23,2.6-1.75,2.22-1.26,4.46-2.5,6.74-3.64,1.69-.85,3.41-1.65,5.28-2.04.18-.04.38-.01.58-.01-.08.18-.14.39-.25.55-1.13,1.6-2.39,3.06-4,4.23-3.08,2.23-6.43,4-9.85,5.61-.86.4-1.82.58-2.72.91-.73.27-1.43.61-2.15.92-.32.13-.65.25-.97.37-.04-.07-.08-.13-.12-.2Z"/>
      <path class="cls-2" d="M48.25,53.7c-.84-.14-1.52-.27-2.2-.36-.28-.04-.43-.13-.46-.44-.11-1.64-.27-3.28-.35-4.92-.05-.91.05-.97.97-.97.52,0,1.01-.06,1.47-.32.28-.16.63-.19.93-.31.39-.14.6-.11.86.31.23.37.73.59,1.14.8.26.13.39.19.26.51-.61,1.53-1.18,3.08-1.78,4.62-.1.25-.2.52-.37.72-.15.18-.39.29-.48.35Z"/>
      <path class="cls-2" d="M41.14,55.87c.88,0,1.07.21.98.77-.32,1.89-.87,3.71-1.59,5.49-.14.35-.28.46-.67.25-.35-.19-.77-.29-1.17-.35-.37-.05-.55-.12-.43-.55.35-1.27.41-2.59.45-3.9.02-.48.17-.82.61-1,.69-.28,1.39-.54,1.83-.7Z"/>
    </g>
  </g>
</svg>