<?xml version="1.0" encoding="UTF-8"?>
<svg id="Layer_2" data-name="Layer 2" xmlns="http://www.w3.org/2000/svg" viewBox="0 0 76.98 177.15">
  <defs>
    <style>
      .cls-1 {
        fill: #496847;
      }

      .cls-1, .cls-2, .cls-3 {
        stroke-width: 0px;
      }

      .cls-2 {
        fill: #5e8099;
      }

      .cls-3 {
        fill: #486b86;
      }
    </style>
  </defs>
  <g id="Layer_1-2" data-name="Layer 1">
    <g>
      <path class="cls-3" d="M50.24,46.66c1.23,2.4,2.47,4.8,3.69,7.21.21.41.39.85.51,1.29.24.92-.33,1.5-1.24,1.27-.5-.13-.99-.34-1.46-.56-2.3-1.09-4.21-2.65-5.73-4.7-.16-.22-.4-.37-.61-.55-.27.33.12.5.2.74.7,2.09,1.37,4.19,1.72,6.37.13.82.13,1.68.05,2.52-.06.68-.24,1.41-.98,1.72-.73.31-1.33-.1-1.8-.57-.59-.59-1.12-1.25-1.56-1.96-1-1.61-1.63-3.4-2.27-5.17-.05-.13-.11-.26-.18-.38,0-.01-.05,0-.08-.01-.15,1.3-.28,2.61-.46,3.91-.16,1.12-.43,2.21-.95,3.24-.28.56-.67.86-1.32.73-.34-.35-.69-.69-1.03-1.04-1.87-3.46-2.07-7.25-2.15-11.21-.29,1.4-.54,2.67-.83,3.93-.46,2.04-1.1,4.03-2.11,5.87-.32.58-.68,1.16-1.1,1.67-.66.81-1.38.85-2.05.06-.44-.52-.8-1.16-1-1.8-.49-1.57-.38-3.21-.28-4.83.21-3.27,1.15-6.37,2.11-9.47.02-.12.05-.24.07-.36-.09.07-.18.13-.27.2-1.64,2.15-3.24,4.32-4.92,6.44-1.42,1.8-2.85,3.6-4.56,5.15-.65.58-1.33,1.09-2.24,1.26-1.81.34-2.86-1.6-2.35-2.8.64-1.48,1.46-2.85,2.46-4.09,1.35-1.67,2.78-3.27,4.18-4.9.62-.71,1.25-1.41,1.8-2.2-.85.48-1.68.97-2.54,1.44-2.64,1.42-5.33,2.71-8.28,3.36-.7.15-1.43.18-2.15.22-1.29.07-2.13-1.54-1.59-2.55.43-.79.99-1.45,1.7-1.94,1.22-.84,2.49-1.6,3.73-2.4.16-.1.33-.2.45-.44-.27.05-.53.12-.8.15-1.09.13-2.18.34-3.28.36-1.41.02-2.41-.69-2.95-2.03-.35-.86-.21-1.65.47-2.21.61-.51,1.33-.93,2.06-1.26,1.36-.61,2.83-.87,4.3-1.05,1.98-.25,3.97-.47,5.96-.72.07,0,.14-.07.4-.2-.38-.06-.58-.11-.78-.13-3.06-.23-6.12-.46-9.14-1.08-1.4-.28-2.76-.68-3.98-1.47-.45-.29-.8-.66-1.03-1.15-.32-.67-.23-1.01.42-1.36.99-.53,2.07-.74,3.17-.88,3.46-.45,6.82.09,10.16.94.89.23,1.78.47,2.73.55-.56-.44-1.11-.89-1.68-1.32-2.62-1.99-5.08-4.16-7.35-6.53-.97-1.02-1.79-2.14-1.95-3.61-.21-1.9,1.28-3.2,3.17-2.87,1.36.24,2.41,1,3.38,1.88,2.11,1.91,4.19,3.85,6.27,5.79,1.04.97,2.04,1.99,3.07,2.96.15.14.38.19.57.28-.1-.18-.16-.39-.3-.53-2.66-2.76-5.34-5.52-7.23-8.89-.85-1.52-1.62-3.09-2.36-4.66-.5-1.06-.75-2.2-.75-3.37,0-1.78,1.39-2.75,3.07-2.15,1.01.36,1.84,1.01,2.47,1.87,1.13,1.54,2.21,3.13,3.3,4.7.26.38.5.77.75,1.15.05-.02.11-.04.16-.06-.11-.39-.21-.79-.32-1.18-.44-1.59-.94-3.17-1.3-4.78-.18-.81-.18-1.67-.16-2.51.03-1.09.94-1.56,1.91-1.06.83.43,1.42,1.11,1.87,1.9.38.68.68,1.4,1.08,2.22.02-.32.06-.55.06-.78-.01-1.19-.09-2.38-.03-3.57.05-.95.25-1.89.43-2.83.06-.33.25-.65.42-.95.56-.95,1.72-1.19,2.52-.43.51.49.94,1.11,1.29,1.73,1.08,1.92,1.6,4.04,1.97,6.19.23,1.37.42,2.75.55,4.13.13,1.35.17,2.72.31,4.11.07-.28.15-.55.21-.83.54-2.73,1.12-5.46,2.33-8,.61-1.28,1.32-2.52,2.01-3.76.62-1.12,1.69-1.46,2.88-1.46.91,0,1.33.43,1.54,1.33.28,1.2.03,2.38-.1,3.54-.25,2.24-.61,4.47-.99,6.7-.31,1.8-.74,3.57-1.49,5.25-.04.08.01.2.02.3.1-.04.24-.05.29-.12.16-.21.28-.44.41-.66,1.1-1.85,2.2-3.7,3.63-5.31,1.87-2.11,4.01-3.88,6.75-4.75.47-.15.95-.28,1.44-.32.86-.08,1.36.36,1.27,1.22-.09.88-.26,1.78-.56,2.61-.9,2.46-2.37,4.59-4.07,6.56-1.21,1.41-2.52,2.73-3.79,4.09-.08.08-.14.18-.22.27-.11.08-.21.16-.32.23.13.02.26.04.38.04.04,0,.09-.06.13-.09,1.93-.8,3.84-1.64,5.79-2.38,1.84-.71,3.74-1.26,5.72-1.45.6-.06,1.22-.02,1.81.1,1.08.23,1.45.95,1.16,2.02-.32,1.18-1.05,2.09-2.02,2.76-1.12.77-2.28,1.51-3.52,2.06-4.17,1.88-8.57,3.05-13.07,3.82-.28.05-.56.12-.84.28.54.05,1.07.09,1.61.15,4.8.53,9.51,1.48,13.99,3.36.82.35,1.63.78,2.34,1.32,1.42,1.08,1.06,3.11-.62,3.73-.93.35-1.9.3-2.84.1-1.73-.37-3.44-.8-5.16-1.23-1.43-.37-2.85-.79-4.28-1.18-.19-.05-.39-.07-.62-.02.16.11.31.24.47.33,3.31,1.96,6.11,4.51,8.48,7.53.41.52.81,1.07,1.27,1.55.62.65.61,1.31.26,2.07-.37.81-.89,1.32-1.83,1.37-1.14.06-2.18-.27-3.2-.71-1.31-.57-2.5-1.36-3.63-2.23-.13-.1-.29-.18-.44-.27-.06-.03-.12-.06-.19-.09.01.07.03.15.04.22ZM10.04,29.83h0c-.31-.46-.58.1-.92.05-.45-.06-.93.16-1.42.27.51.66,1.17.85,1.83,1.06,1.38.45,2.78.75,4.22.91,2.35.26,4.68.6,7.03.84,1.29.13,2.6.13,3.89.19.17,0,.35.02.52.03.83.05,1.67.11,2.5.14.14,0,.29-.12.44-.19-.09-.16-.15-.4-.29-.46-.96-.39-1.91-.84-2.92-1.09-2.55-.62-5.11-1.19-7.68-1.69-1.24-.24-2.51-.31-3.78-.4-1.16-.08-2.31-.02-3.43.34ZM29.41,27.91c-.61.09-.82-.46-1.21-.74-2.06-1.51-3.91-3.25-5.73-5.04-.25-.24-.52-.46-.78-.68-1.22-1.02-2.43-2.04-3.65-3.06-1.05-.87-2.1-1.71-3.52-1.93-1.18-.18-2.29.97-1.86,2.07.27.69.58,1.44,1.08,1.96,1.51,1.57,3.06,3.09,4.7,4.52,1.43,1.25,2.99,2.36,4.51,3.51,1.39,1.06,2.9,1.91,4.54,2.51.59.21.57.19.8-.36.28-.66.62-1.29.91-1.95.11-.25.14-.54.21-.82.15.05.3.09.45.14M19.59,7.7c-.62,0-1.15.55-1.17,1.16-.04,1.03.21,2.02.6,2.95.97,2.36,2.09,4.66,3.58,6.74,1.06,1.48,2.21,2.89,3.39,4.27,1.12,1.32,2.3,2.6,3.5,3.85.81.85.9.82,1.9.26.1-.06.2-.11.3-.17.62-.4.63-.4.35-1.14-.1-.27-.21-.54-.35-.79-1.28-2.34-2.38-4.77-3.83-7.01-1.9-2.94-3.64-5.98-5.86-8.69-.63-.77-1.5-1.16-2.4-1.42ZM56.89,10.22c.09-.29-.03-.45-.33-.44-.29.01-.6,0-.85.11-1.09.47-2.22.88-3.21,1.5-2.15,1.35-3.9,3.16-5.34,5.26-1.97,2.89-3.83,5.86-5.52,8.93-.4.73-.82,1.47-1.33,2.13-.32.41-.12.63.1.89.28.34.46-.03.64-.14,2.78-1.6,5.12-3.75,7.44-5.94.78-.73,1.44-1.58,2.2-2.34,1.84-1.86,3.42-3.92,4.75-6.17.7-1.18,1.2-2.43,1.47-3.78ZM39.59,27.74c.28-.79.49-1.51.78-2.2,1.18-2.77,2.38-5.53,3.19-8.44.5-1.78.82-3.59,1.03-5.43.13-1.14.35-2.28.46-3.42.11-1.12.17-2.25.22-3.37.02-.48-.26-.67-.66-.41-.47.31-.94.7-1.25,1.16-1.67,2.51-2.8,5.25-3.49,8.18-.6,2.56-1.18,5.12-1.74,7.68-.31,1.41-.58,2.82-.86,4.24-.09.45.03.76.5.97.6.28,1.15.65,1.82,1.04ZM27.99,55.9c.06.58.08,1.4.24,2.18.15.69.23,1.44.8,1.98.4.38.55.36.9-.06.98-1.18,1.65-2.53,2.08-3.98.54-1.79.99-3.62,1.38-5.45.32-1.49.51-3.01.7-4.52.12-.94.12-1.9.21-2.85.15-1.52.34-3.03.49-4.55.02-.18-.03-.43-.15-.55-.26-.25-1.21-.05-1.4.27-.67,1.15-1.48,2.25-1.97,3.47-.83,2.09-1.53,4.24-2.16,6.4-.71,2.41-.99,4.91-1.13,7.65ZM36.63,16.14c-.14-1.47-.31-2.93-.4-4.4-.13-2-.57-3.94-1.08-5.86-.36-1.38-.88-2.69-1.81-3.81-.21-.25-.36-.62-.73-.46-.25.11-.53.4-.59.65-.22.98-.47,1.98-.5,2.97-.04,1.5.08,3,.16,4.51.03.6.1,1.21.21,1.8.2,1.16.41,2.32.65,3.48.69,3.33,1.4,6.66,2.11,9.99.05.25.13.52.28.72.1.13.35.2.53.19.07,0,.18-.25.21-.4.08-.37.14-.74.18-1.11.13-1.29.24-2.58.36-3.87.14-1.46.27-2.93.41-4.4ZM53.31,55.43c.06-.05.12-.1.18-.15-.42-.82-.84-1.63-1.25-2.45-1.39-2.77-2.87-5.49-4.57-8.09-.75-1.15-1.56-2.23-2.58-3.15-.75-.68-1.5-1.36-2.23-2.06-.98-.95-1.93-1.93-2.9-2.89-.89-.89-.88-.88-1.77-.05-.2.19-.2.29-.06.5.7,1.03,1.41,2.05,2.06,3.11.81,1.33,1.6,2.69,2.34,4.06.55,1.02.94,2.13,1.55,3.11,1.23,2,2.62,3.9,4.4,5.46,1.41,1.23,3.03,2.09,4.83,2.61ZM41.98,31.01s0,.02,0,.04c-.15,0-.29,0-.44,0q-.72,0-.9.74c-.03.14-.06.28-.07.43-.05.69,0,.79.67,1,.83.26,1.66.49,2.5.73,3.56,1,7.12,2.01,10.7,2.98,1.73.46,3.48.83,5.23,1.22.73.16,1.45.09,2.12-.26.69-.36.78-1.04.19-1.55-.28-.24-.61-.44-.93-.63-2.02-1.17-4.22-1.9-6.45-2.54-2.19-.63-4.41-1.19-6.68-1.45-.92-.11-1.83-.23-2.75-.34-1.06-.13-2.12-.24-3.18-.37ZM35.34,49.16c-.05,1.68-.02,3.76.35,5.83.26,1.48.57,2.95,1.23,4.32.22.46.55.88.86,1.3.18.24.42.34.59-.03.16-.34.33-.68.46-1.03.56-1.47.73-3.04.83-4.58.13-1.96.13-3.93-.43-5.86-.34-1.19-.65-2.4-.9-3.61-.29-1.41-.48-2.84-.74-4.26-.19-1.02-.4-2.04-.62-3.05-.05-.25-.12-.55-.49-.48-.33.06-.61.17-.63.59-.04.6-.12,1.2-.17,1.81-.03.38,0,.76-.02,1.13-.1,1.53-.25,3.05-.32,4.58-.05.98,0,1.97,0,3.36ZM40.52,34.6l-.11.14c.13.14.24.3.39.43.74.65,1.51,1.25,2.22,1.93,2.1,2.01,3.92,4.25,5.5,6.68.15.24.33.48.54.66.77.65,1.55,1.29,2.36,1.9,1.42,1.08,2.99,1.88,4.75,2.25.42.09.87.08,1.3.06.5-.02.73-.41.94-.8.22-.41-.17-.56-.35-.79-.15-.18-.33-.33-.48-.51-.86-1.02-1.67-2.07-2.57-3.05-1.27-1.39-2.76-2.55-4.29-3.64-2.51-1.79-5.28-3.11-8.08-4.38-.7-.32-1.41-.6-2.12-.9ZM61.44,20.71c-.9.17-1.86.25-2.76.53-2.05.62-4.12,1.2-6.09,2.03-3.15,1.32-6.27,2.75-8.99,4.89-.55.43-1.1.84-1.64,1.28-.12.1-.18.27-.27.41.18,0,.36.03.53-.01.39-.1.77-.25,1.17-.34,1.75-.39,3.5-.75,5.24-1.15,2.77-.64,5.48-1.44,8.12-2.51,2.06-.84,4.04-1.78,5.53-3.49.21-.24.4-.5.54-.78.15-.31.07-.57-.32-.65-.34-.07-.68-.13-1.07-.2ZM46.32,59.18s-.01,0-.02,0c0-.41.08-.83-.01-1.22-.43-1.77-.82-3.56-1.4-5.27-1.23-3.6-2.74-7.08-4.76-10.32-.57-.91-1.14-1.81-1.72-2.71-.05-.08-.18-.11-.28-.16-.04.12-.13.25-.11.36.2.9.46,1.79.64,2.69.22,1.16.33,2.34.57,3.5.25,1.21.57,2.42.91,3.61.82,2.9,1.81,5.75,3.24,8.42.45.85.94,1.67,1.7,2.29.24.2.62.42.88.37.38-.07.41-.5.39-.87-.01-.23,0-.46,0-.7ZM17.13,56.26c.34-.15.72-.23,1-.45.59-.46,1.17-.95,1.68-1.5.77-.82,1.5-1.68,2.22-2.55,1.2-1.45,2.41-2.88,3.55-4.37,1.6-2.09,3.14-4.22,4.7-6.33.62-.84,1.23-1.68,1.82-2.54.15-.21.44-.53.11-.75-.17-.11-.53.04-.79.09-.05,0-.09.07-.13.11-.81.75-1.61,1.5-2.42,2.24-.72.67-1.47,1.31-2.17,2-1.05,1.03-2.13,2.04-3.1,3.14-1.33,1.52-2.55,3.14-3.86,4.67-1.1,1.28-2.06,2.65-2.9,4.1-.21.37-.41.78-.49,1.19-.12.63.11.84.79.94ZM11.15,47.1s.01.06.02.09c.68-.14,1.37-.23,2.02-.43,3.5-1.05,6.75-2.65,9.78-4.67,2.35-1.57,4.56-3.36,6.84-5.04.33-.24.24-.41,0-.6-.35-.28-.7-.15-1.07-.03-2.53.86-4.93,2.01-7.34,3.16-.58.28-1.14.59-1.72.84-2.42,1.06-4.79,2.24-6.94,3.78-.86.61-1.82,1.16-2.37,2.12-.1.17-.17.34-.26.51.2.09.4.19.6.25.13.04.29,0,.43,0ZM11.23,40.49c.68-.09,1.29-.11,1.88-.26,1.99-.52,3.98-1.02,5.93-1.64,2.65-.84,5.27-1.77,7.9-2.67.49-.17.98-.33,1.46-.54.16-.07.27-.25.41-.38-.17-.15-.31-.34-.5-.43-.14-.07-.34-.04-.52-.03-.89.05-1.79.06-2.68.18-1.71.23-3.42.51-5.13.78-1.54.25-3.08.49-4.6.79-1.24.25-2.49.53-3.7.88-.83.24-1.64.58-2.27,1.22-.57.58-.56.97.03,1.54.53.52,1.23.39,1.8.54ZM26.56,5.53c-.18.28-.39.49-.45.74-.25,1-.15,2.04.2,2.96.72,1.87,1.24,3.78,1.73,5.71.24.94.44,1.91,1,2.76,1.48,2.29,2.8,4.67,3.76,7.23.1.27.17.57.35.79.11.14.38.17.58.24.06-.17.19-.35.17-.51-.06-.37-.21-.72-.3-1.08-.74-2.97-1.4-5.96-2.23-8.9-.64-2.28-1.44-4.52-2.25-6.75-.36-1.01-.88-1.97-1.76-2.65-.22-.17-.47-.32-.79-.54Z"/>
      <path class="cls-1" d="M36.73,60.7c.34.35.69.69,1.03,1.04.06,2.38.12,4.75.18,7.13,0,.35.02.7.03,1.04.04,1.77.13,3.54.1,5.3-.02,1.68-.16,3.35-.26,5.02-.07,1.16-.13,2.31-.26,3.46-.17,1.58-.04,3.18-.45,4.74-.09.36-.06.75-.07,1.13-.04,2.05-.13,4.11-.45,6.14-.03.17-.02.35-.02.52-.02,2.99,0,5.98-.08,8.97-.04,1.56.31,3.05.46,4.57.05.52.12,1.04.13,1.55.07,2.52.12,5.04.18,7.57.07,2.81.16,5.62.3,8.47.12-.59.24-1.18.36-1.77.53-2.7.9-5.43,1.74-8.06,1.01-3.16,2.4-6.15,4.22-8.94,1.63-2.5,3.24-5.02,4.86-7.53.27-.41.56-.81.84-1.21.1-.14.16-.32.29-.42,1.01-.79,2.03-1.58,3.07-2.34.1-.08.34.03.51.05-.15.12-.34.22-.46.37-2.03,2.65-4.06,5.3-6.08,7.95-.24.32-.45.68-.64,1.03-1.53,2.9-3.26,5.69-4.47,8.76-1.04,2.63-1.63,5.37-2.12,8.15-.73,4.16-1.49,8.32-2.24,12.48-.05.28-.07.58-.07.87,0,3.87,0,7.73,0,11.6,0,.11.02.22.17.37.2-.61.45-1.21.6-1.84.91-3.77,2.68-7.15,4.6-10.48.17-.3.33-.44.68-.3.27.11.42-.07.53-.3.59-1.24,1.64-2.02,2.77-2.69.48-.28,1-.4,1.58-.35.35.03.74-.08,1.08-.22,1.6-.68,3.25-.83,4.94-.59.25.04.5.14.74.22.49.16.97.36,1.47.47.5.12.91.33,1.2.78.23.37.53.69.77,1.05.35.54.5,1.1.07,1.73-.13-.75-.35-1.39-1.09-1.69-1.08-.44-2.15-.33-3.22.05-.07.03-.15.1-.19.17-.48.88-1.35,1.25-2.18,1.66-.31.16-.53.3-.63.71-.25,1.12-.92,1.99-1.9,2.6-.1.06-.21.12-.28.2-.77.88-1.73,1.05-2.85.85-.65-.12-1.34-.14-1.99-.06-.56.07-1.09.34-1.62.54-.29.11-.56.27-.85.37-.5.16-.7.58-.88,1.01-.65,1.61-1.26,3.24-1.93,4.85-.77,1.86-1.18,3.81-1.51,5.79-.04.25-.04.52-.03.78.05,1.48.15,2.95.17,4.43.03,2.56-.01,5.12.01,7.67.03,2.84.1,5.69.17,8.53.03,1.09-.77,1.69-1.35,2.42-.05.07-.38.03-.44-.05-.19-.28-.45-.6-.45-.9,0-3.83.05-7.66.08-11.49,0-.87.04-1.74.06-2.61.04-1.62.13-3.24.09-4.86-.04-1.45-.2-2.89-.35-4.33-.06-.57-.16-1.14-.33-1.68-.22-.69-.57-1.34-.78-2.03-.62-1.98-1.88-3.5-3.37-4.87-1.23-1.13-2.68-1.84-4.27-2.24-.46-.12-.98-.04-1.46.04-.83.13-1.65.32-2.47.5-.39.09-.5-.02-.5-.43,0-.69-.09-1.38-.14-2.07-.04-.46-.34-.56-.74-.52-.3.03-.59.06-.95.03.6-.64.5-1.32.26-1.99-.19-.54-.45-1.07-.73-1.57-.29-.51-.77-.75-1.35-.86-.31-.06-.43-.24-.19-.56.67-.9.66-.94-.14-1.72-.56-.55-1.12-1.1-1.72-1.61-.28-.24-.65-.37-.98-.54-.26-.13-.44-.21-.19-.57.77-1.13.14-3.25-1.09-3.81-.47-.21-.9-.09-1.34.08-.71.27-.71.27-.99-.44-.14-.35-.29-.7-.42-1.05-.26-.65-.77-1.02-1.42-1.16-1.67-.37-3.35-.76-5.06-.23-.34.11-.58-.05-.75-.29-.5-.75-1.25-.9-2.06-.87-.74.02-1.49.09-2.27.14.7-.8,1.59-1.32,2.59-1.61,1.06-.31,1.98-.81,2.71-1.64.3-.34.6-.29,1-.15,1.12.38,2.26.76,3.42.99.71.14,1.5.16,2.19-.28.14-.09.32-.14.48-.21.79-.34.77-.32,1.37.25.95.91,2.07,1.49,3.41,1.51.31,0,.59.03.72.35.42,1.12,1.35,1.77,2.21,2.5.64.54,1.25,1.13,1.83,1.74.73.77,1.59.92,2.54.62.34-.11.55-.16.59.28.17,1.75,1.55,2.31,2.9,2.87.37.15.79.19,1.18.28.63.13.72.21.74.84,0,.29.01.59-.08.86-.14.4-.08.76.12,1.08.64,1.05.75,2.22.85,3.41.05.54.17,1.09.33,1.61.36,1.19.78,2.36,1.15,3.55.13.41.12.86.26,1.26.33.96.68,1.91,1.08,2.84.55,1.28,1.16,2.53,1.74,3.8.08.18.18.35.3.6.31-.38.2-.77.17-1.1-.2-2.13-.54-4.24-.5-6.39.04-2.02-.17-4.04-.17-6.06.01-3.83.15-7.66.15-11.5,0-4.01-.08-8.02-.18-12.02-.03-1.21-.63-2.28-1.24-3.3-1.34-2.23-3.41-3.41-5.89-3.97-.68-.15-1.37-.25-2.04-.41-.27-.06-.59-.09-.66-.46-.07-.34.12-.51.35-.72.97-.87.87-2.32-.19-3.09-.89-.64-1.93-.94-2.97-1.18-1.13-.26-2.26-.52-3.43-.48-.18,0-.4-.17-.53-.32-.16-.19-.09-.39.08-.61.75-.98.49-2.61-.38-3.43-.71-.68-1.57-.65-2.41-.78-.6-.09-1.21-.13-1.81-.22-.45-.06-.57-.34-.33-.74.53-.94.51-.98-.23-1.77-.79-.84-1.76-1.3-2.88-1.49-.14-.02-.28-.05-.42-.08-.05-.01-.09-.06-.2-.14.18-.36.49-.47.86-.57,1.06-.29,2.11-.11,3.17-.03.88.06,1.75.35,2.65.16.31-.06.65-.07.92-.21.41-.22.78-.18,1.16.03,1.34.74,2.75,1.36,3.93,2.39.42.37.97.63,1.5.83,1.05.4,2.08.86,3.23.97.7.06.96.69.68,1.39-.15.37-.38.7-.17,1.14.25.51.53.95,1.1,1.17,1.01.4,2.06.58,3.13.56.35,0,.48.07.52.37.04.29.09.57.1.86.03,1.48.21,2.94.55,4.38.22.96.36,1.94.5,2.91.18,1.29.63,2.57,1.3,3.45.03-.25.08-.43.08-.61.02-1.6,0-3.2.07-4.79.1-1.96.31-3.92.44-5.88.15-2.22.18-4.46.44-6.67.28-2.39-.41-4.73-.21-7.11.14-1.62.24-3.24.29-4.86.1-3.19.16-6.39.24-9.58.06-2.47.11-4.94.18-7.4.02-.61.1-1.21.15-1.82Z"/>
      <path class="cls-3" d="M52.71,92.56,43.51,93.84c-.43-.04-.87-.16-1.25-.35-.6-.3-.62-.75-.07-1.13,1.04-.71,2.19-1.2,3.41-1.49,1.64-.39,3.3-.64,5-.59.63.02,1.26,0,1.91-.16-.18-.05-.35-.11-.53-.15-2.22-.48-4.32-1.32-6.41-2.2-.68-.28-1.26-.8-1.87-1.24-.16-.11-.28-.3-.38-.47-.43-.73-.17-1.43.65-1.6.5-.11,1.04-.07,1.56-.07.34,0,.68.06,1.16.11-.18-.21-.27-.33-.38-.44-.67-.64-1.37-1.26-2.02-1.92-.3-.31-.53-.69-.76-1.06-.27-.44-.23-.9.07-1.31.29-.4.75-.49,1.18-.37.58.17,1.18.36,1.69.67,1.32.8,2.59,1.66,3.88,2.5.18.12.37.22.62.22-.73-.81-1.5-1.58-2.17-2.44-.66-.84-1.24-1.75-1.8-2.67-.54-.89-.58-1.86-.33-2.86.28-1.11,1.04-1.52,2.1-1.11,1.12.43,1.95,1.25,2.7,2.14.36.44.68.91,1.12,1.33-.14-.8-.31-1.6-.41-2.41-.09-.72-.13-1.44-.12-2.17,0-.74.26-1.36,1.03-1.65.81-.31,1.49-.11,2.06.48.8.82,1.38,1.8,1.81,2.85.48,1.18.91,2.37,1.38,3.59.25-.13.13-.41.15-.64.23-2.31.75-4.53,2.12-6.45.35-.49.79-.92,1.23-1.34.23-.22.52-.39.81-.5.79-.32,1.35,0,1.41.85.04.6.03,1.22-.05,1.82-.17,1.23-.4,2.46-.6,3.68-.03.17-.03.34-.07.71.42-.5.69-.89,1.03-1.21.55-.51,1.14-.98,1.73-1.44.18-.14.42-.21.64-.27,1.4-.37,2.16.34,1.87,1.76-.15.73-.36,1.45-.55,2.18-.02.06-.05.11-.07.17.04-.03.08-.07.13-.1.75-.59,1.48-1.22,2.44-1.44.25-.06.51-.12.77-.12.62,0,.98.29,1.14.87.26.96.15,1.89-.25,2.79-.55,1.26-1.52,2.17-2.57,3.02-1.12.91-2.22,1.85-3.33,2.77.03.05.06.11.09.16.23-.09.46-.16.67-.27,2.08-1.1,4.33-1.44,6.64-1.48.45,0,.93.08,1.37.22.57.18.74.58.57,1.17-.26.89-.84,1.57-1.67,1.9-1.13.43-2.31.72-3.48,1.05-.55.15-1.11.25-1.8.4,1.83.35,3.5.65,5.16,1.01.64.14,1.26.42,1.88.68.26.11.51.28.73.47.32.26.57.56.46,1.04-.11.5-.42.73-.87.85-1.58.45-3.18.61-4.79.19-.16-.04-.33-.06-.56.01.66.45,1.33.88,1.97,1.36.76.57,1.5,1.19,2.24,1.79.11.09.21.2.3.31.32.37.19.76.03,1.15-.15.35-.47.29-.75.28-1.12-.05-2.17-.43-3.16-.9-1.86-.88-3.68-1.85-5.51-2.78-.1-.05-.21-.09-.32-.13-.12-.05-.23-.1-.35-.14.06.1.11.2.17.3.34.43.67.87,1.03,1.27,1.23,1.38,2.09,2.98,2.87,4.63.2.43.27.95.27,1.42,0,.53-.34.73-.83.49-.46-.23-.89-.54-1.31-.84-.26-.18-.49-.4-.79-.66.11.78.23,1.46.32,2.15.05.37.17.83-.24,1.02-.39.18-.72-.15-.95-.44-.89-1.17-1.77-2.36-2.62-3.56-.45-.63-.83-1.31-1.24-1.96-.02-.04-.05-.09-.07-.13-.01.03-.02.07-.03.1.04,0,.08,0,.12.01.08.85.15,1.7.26,2.55.23,1.81.52,3.61.39,5.45-.04.51-.16,1.03-.33,1.51-.18.5-.58.64-1.05.41-.27-.13-.52-.36-.72-.6-.66-.82-.84-1.83-1.02-2.83-.1-.56-.19-1.11-.44-1.67-.26.74-.49,1.49-.78,2.22-.3.78-.64,1.55-.99,2.32-.21.45-.44.93-1.06.86-.54-.05-1-.64-1.09-1.31-.14-1.07-.02-2.13.07-3.19.02-.26.07-.72-.03-.76-.45-.18-.55.26-.72.55-.88,1.57-1.81,3.11-2.97,4.49-.15.18-.3.36-.46.52-.48.47-.93.37-1.04-.29-.09-.53-.1-1.11,0-1.64.44-2.17,1.1-4.27,2.3-6.16.4-.64.79-1.29,1.17-1.94.08-.14.09-.32.12-.49-.17-.02-.41-.12-.51-.05-1.04.76-2.05,1.55-3.07,2.34-.13.1-.2.28-.29.42-.39.18-.77.38-1.16.54-.53.22-1.06.49-1.61.59-.72.13-1.23-.39-1.17-1.13.08-.96.31-1.9,1.02-2.61,1.65-1.63,3.43-3.1,5.56-4.1,0,0-6,.97-8.73.68ZM53.72,92.09s.44-.08.73-.22c.48-.2.92-.31,1.32-.47.16-.06.27-.04.46-.1.33-.1.18.02.26-.34.07-.32-.19-.44-.42-.42-.4.03-.8.09-1.19.15-.82.12-1.64.3-2.47.36-1.58.11-3.17-.1-4.76.17-1.58.26-3.11.65-4.51,1.45-.15.09-.27.22-.49.41,1.38.26,2.63.55,3.9.42,1.26-.13,2.51-.31,3.75-.55M68.65,100.3s.05.03.07.04c-.02-.01-.05-.03-.07-.04-.03-.17-.01-.36-.09-.51-.62-1.11-1.2-2.25-1.91-3.29-.52-.76-1.21-1.4-1.85-2.06-.82-.85-1.67-1.67-2.52-2.49-.1-.1-.31-.09-.46-.14-.03.18-.14.41-.07.55.31.62.65,1.22,1.02,1.81,1.32,2.1,3.17,3.74,4.86,5.52.26.28.68.41,1.02.61ZM48.34,74.4c-.47.06-.69.36-.71.67-.04.65-.13,1.37.09,1.96.32.85.8,1.69,1.38,2.4,1.2,1.48,2.48,2.9,3.77,4.31.57.62,1.22,1.16,1.86,1.7.75.63,1.53,1.23,2.31,1.83.16.12.34.43.58.15.22-.25.5-.53.34-.93-.05-.13-.17-.23-.25-.35-.88-1.36-1.77-2.72-2.63-4.08-.43-.68-.79-1.42-1.27-2.07-.73-.97-1.53-1.88-2.31-2.81-.48-.58-.94-1.19-1.5-1.68-.49-.43-1.1-.73-1.65-1.08ZM63.6,70.8c-.02-.24-.01-.5-.08-.75-.11-.43-.32-.52-.69-.29-.27.17-.54.35-.76.58-1.9,1.95-2.66,4.39-2.82,7.02-.12,1.94-.02,3.89-.02,5.84,0,.2.04.4.05.61.01.4.05.8,0,1.19-.03.26-.05.52.21.58.21.04.59-.01.68-.16.26-.43.48-.92.61-1.41.16-.61.2-1.25.3-1.88.2-1.27.71-2.44,1.07-3.66.47-1.57.76-3.2,1.08-4.81.18-.93.25-1.88.38-2.86ZM52.77,73.46c.05.24.16.58.17.92.08,1.62.57,3.12,1.28,4.56.62,1.25,1.26,2.48,1.94,3.7.62,1.11,1.31,2.18,1.97,3.27.11.19.18.47.5.25.23-.17.5-.29.33-.68-.18-.42-.36-.86-.44-1.31-.31-1.7-.55-3.41-.88-5.11-.47-2.37-1.24-4.63-2.72-6.6-.33-.44-.69-.75-1.2-.67-.6.09-.79.62-.91,1.15-.03.14-.02.29-.04.54ZM61.15,85.24c-.12.54.17.88.53,1.21.2.17.35.19.48-.05.08-.15.15-.32.23-.47.98-1.7,1.9-3.44,2.97-5.09,1.11-1.72,1.98-3.52,2.29-5.56.07-.43.31-1.01-.05-1.19-.3-.16-.85.15-1.28.26-.08.02-.15.09-.21.15-1.1,1.03-2.17,2.1-2.8,3.5-.33.74-.69,1.47-1.01,2.21-.68,1.61-.91,3.33-1.15,5.04ZM62.27,87.07c.05.04.1.08.15.12,1.1-.97,2.21-1.94,3.31-2.9.78-.68,1.58-1.35,2.36-2.04.93-.83,1.84-1.67,2.74-2.54.56-.54.78-1.28.93-2.02.05-.26-.04-.57-.11-.84-.06-.24-.21-.35-.51-.32-.72.07-1.39.32-1.89.79-1.1,1.03-2.22,2.05-3.03,3.34-1.04,1.67-2.1,3.33-3.15,4.99-.29.46-.54.94-.8,1.41ZM44.68,80.17c-.1.18-.28.36-.25.47.09.29.22.61.43.83,1.1,1.14,2.18,2.32,3.57,3.15.29.17.56.41.88.53,1.77.65,3.41,1.58,5.04,2.5.7.4,1.36.87,2.06,1.29.13.08.42.13.45.08.17-.27.33-.56.37-.86.02-.14-.23-.36-.4-.48-2.06-1.39-4.11-2.79-6.2-4.13-1.55-1-3.14-1.95-4.73-2.89-.34-.2-.75-.3-1.22-.48ZM62.52,88.21c.29.03.42.06.55.05.66-.05,1.32-.12,1.98-.17.23-.02.47,0,.69-.05,1.24-.27,2.48-.53,3.71-.84,1.31-.33,2.62-.68,3.92-1.06.61-.18,1.02-.66,1.36-1.16.31-.46.24-.61-.31-.76-1.3-.35-2.58-.08-3.86.12-1.58.25-3.03.9-4.5,1.5-1.32.54-2.3,1.47-3.54,2.37ZM76.11,91.11c-.35-.21-.48-.31-.63-.39-1.74-.93-3.68-1.17-5.57-1.56-1.01-.21-2.05-.3-3.09-.37-1.24-.09-2.48-.13-3.72-.15-.35,0-.71.1-.72.57-.01.37.18.59.68.62,1.41.08,2.72.53,4.03.97.33.11.66.2,1,.26,1.42.25,2.86.41,4.25.76,1.34.33,2.41-.22,3.77-.71ZM46.67,99.22c0,.71.12.79.63.58.11-.04.21-.09.31-.15.97-.62,1.97-1.21,2.91-1.88,1.76-1.26,3.49-2.56,5.22-3.86.37-.28.68-.63.99-.98.1-.11.17-.31.15-.45-.06-.54-.32-.68-.85-.42-1.15.55-2.31,1.09-3.42,1.71-.88.49-1.72,1.06-2.53,1.65-.6.44-1.09,1.05-1.71,1.46-.61.41-.96.99-1.36,1.55-.19.27-.27.63-.33.79ZM50.67,106.41c.07.02.14.05.21.07.46-.62.96-1.22,1.39-1.86,2.16-3.21,3.83-6.69,5.44-10.19.04-.08.1-.16.09-.24-.02-.16-.04-.34-.14-.45-.04-.05-.28,0-.38.07-.89.64-1.8,1.25-2.33,2.28-.54,1.06-1.12,2.1-1.74,3.11-1.13,1.82-1.88,3.78-2.33,5.86-.1.44-.14.9-.21,1.35ZM56.65,89.95c-.16-.18-.22-.28-.3-.33-2.07-1.1-4.13-2.22-6.22-3.29-1.7-.87-3.5-1.34-5.42-1.22-.28.02-.68-.07-.73.28-.03.22.16.57.36.71.59.41,1.22.77,1.86,1.09.57.28,1.2.42,1.78.69,2.71,1.23,5.63,1.58,8.67,2.07ZM55.51,104.34c.11.65.17,1.1.27,1.55.03.15.18.28.27.41.11-.11.27-.2.34-.34.91-1.81,1.68-3.68,1.98-5.7.27-1.82.57-3.64.87-5.45.04-.25.08-.45-.23-.55-.27-.08-.51-.13-.68.17-.08.15-.17.3-.24.46-.67,1.62-1.51,3.19-1.83,4.95-.28,1.55-.53,3.12-.76,4.5ZM59.54,98.75c.06.74.15,1.72.21,2.7.09,1.39.29,2.75.88,4.03.16.35.39.76.78.68.19-.04.4-.55.41-.85.05-1.7.05-3.41-.26-5.1-.2-1.07-.27-2.17-.42-3.25-.12-.82-.16-1.68-.69-2.38-.11-.15-.29-.23-.45-.35-.09.16-.24.31-.25.48-.09,1.27-.15,2.54-.23,4.05ZM74.38,96.18c-3.36-3.4-7.4-5.12-12.14-5.62,1.69,1.5,10.23,5.92,12.14,5.62ZM61.46,92.65c-.26.36-.44.68-.69.94-.26.26-.24.48-.05.76,1.28,1.92,2.55,3.85,3.85,5.75.45.65.98,1.24,1.59,1.98.09-.85.1-1.47-.26-2.09-.31-.55-.52-1.16-.8-1.73-.11-.23-.25-.46-.43-.64-1.3-1.31-2.3-2.81-2.94-4.55-.05-.13-.14-.24-.25-.43Z"/>
      <path class="cls-2" d="M51.54,92.72l-.22.04c-.42.08-.63.09-1.02.17-1.24.24-2.5.43-3.75.55-1.27.13-3.61-.11-3.9-.42-.19-.21.5-.41.65-.5,1.4-.8,2.76-1.09,4.34-1.35,1.59-.27,3.18-.06,4.76-.17.83-.06,1.65-.24,2.47-.36.4-.06.8-.11,1.19-.15.23-.02.48-.02.53.3.06.35-.09.53-.43.62-.66.2-1.32.41-1.98.64"/>
      <path class="cls-2" d="M19.59,7.7c.91.25,1.78.65,2.4,1.42,2.22,2.72,3.96,5.76,5.86,8.69,1.45,2.25,2.55,4.68,3.83,7.01.14.25.24.53.35.79.28.73.28.74-.35,1.14-.1.06-.2.12-.3.17-1,.57-1.09.59-1.9-.26-1.2-1.25-2.38-2.53-3.5-3.85-1.18-1.39-2.33-2.8-3.39-4.27-1.49-2.08-2.61-4.38-3.58-6.74-.39-.94-.64-1.92-.6-2.95.02-.61.56-1.15,1.17-1.16Z"/>
      <path class="cls-2" d="M56.89,10.22c-.26,1.35-.77,2.61-1.47,3.78-1.33,2.25-2.91,4.31-4.75,6.17-.75.76-1.42,1.61-2.2,2.34-2.31,2.19-4.66,4.34-7.44,5.94-.19.11-.36.48-.64.14-.22-.26-.42-.48-.1-.89.51-.66.93-1.39,1.33-2.13,1.69-3.07,3.55-6.03,5.52-8.93,1.43-2.1,3.18-3.91,5.34-5.26,1-.62,2.13-1.03,3.21-1.5.25-.11.56-.1.85-.11.3-.01.42.14.33.44Z"/>
      <path class="cls-2" d="M29.41,27.9c-.07.27-.1.56-.21.82-.29.66-.63,1.29-.91,1.95-.24.55-.22.57-.8.36-1.64-.6-3.15-1.46-4.54-2.51-1.52-1.15-3.08-2.26-4.51-3.51-1.64-1.43-3.19-2.95-4.7-4.52-.5-.52-.81-1.27-1.08-1.96-.43-1.1.68-2.25,1.86-2.07,1.42.22,2.47,1.06,3.52,1.93,1.22,1.02,2.44,2.04,3.65,3.06.27.22.54.44.78.68,1.82,1.78,3.67,3.53,5.73,5.04.38.28.6.83,1.21.74h0Z"/>
      <path class="cls-2" d="M39.59,27.74c-.67-.39-1.22-.76-1.82-1.04-.46-.22-.58-.53-.5-.97.28-1.41.55-2.83.86-4.24.57-2.56,1.15-5.12,1.74-7.68.68-2.93,1.82-5.68,3.49-8.18.31-.46.78-.85,1.25-1.16.4-.26.67-.07.66.41-.04,1.13-.1,2.25-.22,3.37-.12,1.14-.33,2.28-.46,3.42-.21,1.84-.53,3.65-1.03,5.43-.81,2.91-2.01,5.67-3.19,8.44-.29.69-.51,1.41-.78,2.2Z"/>
      <path class="cls-2" d="M27.99,55.9c.14-2.74.42-5.24,1.13-7.65.64-2.16,1.33-4.31,2.16-6.4.49-1.22,1.29-2.32,1.97-3.47.19-.32,1.14-.52,1.4-.27.12.12.17.37.15.55-.15,1.52-.34,3.03-.49,4.55-.09.95-.09,1.91-.21,2.85-.19,1.51-.39,3.03-.7,4.52-.39,1.83-.84,3.66-1.38,5.45-.43,1.44-1.11,2.8-2.08,3.98-.35.42-.5.44-.9.06-.57-.54-.65-1.29-.8-1.98-.16-.79-.18-1.6-.24-2.18Z"/>
      <path class="cls-2" d="M36.63,16.14c-.14,1.47-.27,2.94-.41,4.4-.12,1.29-.24,2.58-.36,3.87-.04.37-.1.74-.18,1.11-.03.15-.13.4-.21.4-.18,0-.43-.06-.53-.19-.15-.2-.23-.47-.28-.72-.71-3.33-1.41-6.66-2.11-9.99-.24-1.16-.45-2.32-.65-3.48-.1-.6-.17-1.2-.21-1.8-.08-1.5-.2-3.01-.16-4.51.03-1,.28-1.99.5-2.97.06-.26.34-.54.59-.65.36-.16.52.2.73.46.93,1.12,1.44,2.44,1.81,3.81.51,1.92.95,3.86,1.08,5.86.1,1.47.27,2.93.4,4.4Z"/>
      <path class="cls-2" d="M53.31,55.43c-1.79-.52-3.42-1.38-4.83-2.61-1.78-1.56-3.17-3.46-4.4-5.46-.61-.98-1-2.09-1.55-3.11-.75-1.37-1.53-2.73-2.34-4.06-.65-1.06-1.36-2.08-2.06-3.11-.14-.21-.14-.31.06-.5.88-.83.87-.84,1.77.05.97.96,1.92,1.94,2.9,2.89.73.71,1.48,1.39,2.23,2.06,1.02.92,1.83,2,2.58,3.15,1.7,2.6,3.18,5.32,4.57,8.09.41.82.83,1.64,1.25,2.45-.06.05-.12.1-.18.15Z"/>
      <path class="cls-2" d="M41.98,31.01c1.06.12,2.12.24,3.18.37.92.11,1.83.23,2.75.34,2.27.26,4.49.81,6.68,1.45,2.22.64,4.43,1.37,6.45,2.54.32.19.65.39.93.63.59.5.5,1.18-.19,1.55-.67.35-1.39.42-2.12.26-1.75-.39-3.5-.76-5.23-1.22-3.57-.96-7.13-1.98-10.7-2.98-.84-.23-1.67-.47-2.5-.73-.66-.21-.71-.31-.67-1,0-.14.04-.29.07-.43q.18-.73.9-.74c.15,0,.29,0,.44,0,0-.01,0-.02,0-.04Z"/>
      <path class="cls-2" d="M35.34,49.16c0-1.39-.04-2.38,0-3.36.08-1.53.22-3.05.32-4.58.03-.38,0-.76.02-1.13.04-.6.13-1.2.17-1.81.03-.42.3-.53.63-.59.37-.06.43.24.49.48.22,1.01.44,2.03.62,3.05.26,1.42.45,2.85.74,4.26.25,1.21.56,2.42.9,3.61.56,1.93.56,3.9.43,5.86-.11,1.54-.27,3.11-.83,4.58-.13.35-.31.69-.46,1.03-.17.38-.41.28-.59.03-.31-.42-.64-.83-.86-1.3-.66-1.36-.97-2.83-1.23-4.32-.36-2.06-.39-4.14-.35-5.83Z"/>
      <path class="cls-2" d="M40.52,34.6c.71.3,1.42.58,2.12.9,2.8,1.26,5.57,2.58,8.08,4.38,1.53,1.09,3.02,2.25,4.29,3.64.9.98,1.71,2.03,2.57,3.05.15.18.33.33.48.51.18.23.57.37.35.79-.21.39-.44.78-.94.8-.43.02-.88.03-1.3-.06-1.76-.37-3.32-1.17-4.75-2.25-.8-.61-1.59-1.25-2.36-1.9-.22-.18-.39-.42-.54-.66-1.58-2.44-3.4-4.68-5.5-6.68-.71-.68-1.48-1.28-2.22-1.93-.14-.13-.26-.28-.39-.43l.11-.14Z"/>
      <path class="cls-2" d="M61.44,20.71c.39.07.73.13,1.07.2.39.08.47.34.32.65-.14.28-.33.54-.54.78-1.5,1.71-3.48,2.65-5.53,3.49-2.64,1.07-5.35,1.87-8.12,2.51-1.74.4-3.5.76-5.24,1.15-.39.09-.77.24-1.17.34-.17.04-.36.01-.53.01.09-.14.15-.31.27-.41.54-.44,1.09-.85,1.64-1.28,2.72-2.14,5.84-3.56,8.99-4.89,1.97-.83,4.04-1.41,6.09-2.03.9-.27,1.86-.36,2.76-.53Z"/>
      <path class="cls-2" d="M46.32,59.18c0,.23,0,.47,0,.7.02.37-.01.8-.39.87-.27.05-.64-.17-.88-.37-.75-.62-1.25-1.44-1.7-2.29-1.42-2.67-2.41-5.52-3.24-8.42-.34-1.19-.66-2.4-.91-3.61-.24-1.16-.35-2.34-.57-3.5-.17-.91-.43-1.79-.64-2.69-.02-.11.07-.24.11-.36.09.05.23.08.28.16.58.9,1.16,1.8,1.72,2.71,2.03,3.24,3.53,6.72,4.76,10.32.59,1.72.97,3.51,1.4,5.27.09.38.01.81.01,1.22,0,0,.01,0,.02,0Z"/>
      <path class="cls-2" d="M17.13,56.26c-.69-.1-.92-.31-.79-.94.08-.42.28-.82.49-1.19.84-1.45,1.8-2.82,2.9-4.1,1.32-1.53,2.53-3.15,3.86-4.67.97-1.1,2.05-2.11,3.1-3.14.7-.69,1.45-1.33,2.17-2,.81-.75,1.61-1.49,2.42-2.24.04-.04.08-.11.13-.11.27-.05.62-.2.79-.09.33.22.03.53-.11.75-.59.86-1.2,1.7-1.82,2.54-1.56,2.12-3.1,4.25-4.7,6.33-1.14,1.49-2.35,2.93-3.55,4.37-.72.87-1.45,1.73-2.22,2.55-.51.55-1.09,1.04-1.68,1.5-.28.22-.66.3-1,.45Z"/>
      <path class="cls-2" d="M11.15,47.1c-.15,0-.3.03-.43,0-.21-.06-.4-.16-.6-.25.08-.17.16-.35.26-.51.56-.97,1.52-1.51,2.37-2.12,2.15-1.54,4.51-2.72,6.94-3.78.59-.25,1.15-.56,1.72-.84,2.4-1.15,4.81-2.3,7.34-3.16.37-.13.72-.25,1.07.03.24.19.33.36,0,.6-2.28,1.68-4.49,3.47-6.84,5.04-3.02,2.02-6.28,3.61-9.78,4.67-.66.2-1.35.29-2.02.43,0-.03-.01-.06-.02-.09Z"/>
      <path class="cls-2" d="M11.23,40.49c-.56-.15-1.26-.02-1.8-.54-.59-.58-.6-.96-.03-1.54.63-.64,1.44-.98,2.27-1.22,1.22-.36,2.46-.64,3.7-.88,1.53-.3,3.07-.54,4.6-.79,1.71-.28,3.42-.55,5.13-.78.89-.12,1.79-.13,2.68-.18.17-.01.37-.04.52.03.19.1.34.28.5.43-.14.13-.25.31-.41.38-.48.2-.97.37-1.46.54-2.63.9-5.25,1.83-7.9,2.67-1.96.62-3.95,1.12-5.93,1.64-.58.15-1.2.17-1.88.26Z"/>
      <path class="cls-2" d="M26.56,5.53c.33.22.57.37.79.54.88.68,1.4,1.64,1.76,2.65.8,2.23,1.61,4.47,2.25,6.75.83,2.94,1.49,5.93,2.23,8.9.09.36.24.72.3,1.08.03.16-.11.34-.17.51-.2-.08-.47-.1-.58-.24-.17-.22-.24-.52-.35-.79-.97-2.56-2.28-4.94-3.76-7.23-.55-.85-.75-1.82-1-2.76-.5-1.93-1.01-3.85-1.73-5.71-.36-.93-.45-1.96-.2-2.96.06-.25.27-.45.45-.74Z"/>
      <path class="cls-2" d="M10.04,29.83c1.12-.36,2.27-.42,3.43-.34,1.26.09,2.54.16,3.78.4,2.57.5,5.13,1.06,7.68,1.69,1,.24,1.95.7,2.92,1.09.14.06.19.3.29.46-.15.07-.29.19-.44.19-.84-.03-1.67-.09-2.5-.14-.17,0-.35-.02-.52-.03-1.3-.06-2.6-.06-3.89-.19-2.35-.24-4.68-.58-7.03-.84-1.44-.16-2.84-.46-4.22-.91-.65-.21-1.32-.39-1.83-1.06.49-.11.98-.33,1.42-.27.34.05.61-.51.92-.05-.01.02-.03.05-.04.07.01-.02.03-.05.04-.07Z"/>
      <path class="cls-2" d="M48.34,74.4c.56.36,1.16.65,1.65,1.08.56.5,1.01,1.11,1.5,1.68.78.93,1.58,1.84,2.31,2.81.48.64.84,1.38,1.27,2.07.87,1.37,1.75,2.72,2.63,4.08.08.12.2.22.25.35.17.4-.12.67-.34.93-.24.28-.42-.03-.58-.15-.78-.6-1.56-1.2-2.31-1.83-.64-.54-1.29-1.08-1.86-1.7-1.29-1.41-2.58-2.82-3.77-4.31-.58-.71-1.06-1.54-1.38-2.4-.22-.58-.13-1.3-.09-1.96.02-.3.24-.6.71-.67Z"/>
      <path class="cls-2" d="M63.6,70.8c-.12.97-.19,1.92-.38,2.86-.31,1.61-.61,3.24-1.08,4.81-.36,1.22-.88,2.39-1.07,3.66-.1.63-.14,1.27-.3,1.88-.13.49-.34.98-.61,1.41-.09.14-.46.2-.68.16-.26-.06-.24-.32-.21-.58.04-.39,0-.79,0-1.19,0-.2-.04-.4-.05-.61,0-1.95-.1-3.9.02-5.84.17-2.62.93-5.06,2.82-7.02.22-.23.49-.41.76-.58.37-.23.58-.14.69.29.07.25.06.52.08.75Z"/>
      <path class="cls-2" d="M52.77,73.46c.02-.25,0-.4.04-.54.12-.53.31-1.06.91-1.15.52-.08.87.24,1.2.67,1.49,1.97,2.25,4.23,2.72,6.6.34,1.69.57,3.41.88,5.11.08.45.26.89.44,1.31.17.39-.1.52-.33.68-.32.23-.39-.06-.5-.25-.66-1.09-1.35-2.16-1.97-3.27-.68-1.21-1.32-2.45-1.94-3.7-.71-1.43-1.2-2.94-1.28-4.56-.02-.34-.13-.68-.17-.92Z"/>
      <path class="cls-2" d="M61.15,85.24c.24-1.71.47-3.42,1.15-5.04.31-.75.67-1.47,1.01-2.21.64-1.41,1.7-2.47,2.8-3.5.06-.06.13-.13.21-.15.44-.11.98-.42,1.28-.26.36.19.12.77.05,1.19-.32,2.04-1.18,3.84-2.29,5.56-1.07,1.65-1.99,3.39-2.97,5.09-.09.15-.15.31-.23.47-.13.25-.28.23-.48.05-.36-.32-.65-.67-.53-1.21Z"/>
      <path class="cls-2" d="M62.27,87.07c.27-.47.51-.96.8-1.41,1.04-1.67,2.1-3.33,3.15-4.99.81-1.29,1.93-2.31,3.03-3.34.5-.47,1.17-.73,1.89-.79.31-.03.45.08.51.32.07.27.17.58.11.84-.15.74-.37,1.48-.93,2.02-.89.87-1.81,1.71-2.74,2.54-.77.7-1.57,1.36-2.36,2.04-1.11.97-2.21,1.93-3.31,2.9-.05-.04-.1-.08-.15-.12Z"/>
      <path class="cls-2" d="M44.68,80.17c.47.18.88.27,1.22.48,1.59.94,3.18,1.89,4.73,2.89,2.09,1.35,4.14,2.75,6.2,4.13.17.12.42.34.4.48-.04.3-.21.6-.37.86-.03.05-.33,0-.45-.08-.69-.42-1.35-.89-2.06-1.29-1.63-.93-3.27-1.85-5.04-2.5-.31-.12-.58-.36-.88-.53-1.39-.82-2.47-2-3.57-3.15-.21-.22-.34-.53-.43-.83-.03-.11.15-.29.25-.47Z"/>
      <path class="cls-2" d="M62.52,88.21c1.24-.89,2.22-1.82,3.54-2.37,1.48-.6,2.92-1.25,4.5-1.5,1.28-.2,2.56-.47,3.86-.12.54.15.62.3.31.76-.35.5-.75.98-1.36,1.16-1.3.37-2.6.73-3.92,1.06-1.23.31-2.47.57-3.71.84-.22.05-.46.03-.69.05-.66.06-1.32.12-1.98.17-.13.01-.26-.02-.55-.05Z"/>
      <path class="cls-2" d="M76.11,91.11c-1.36.48-2.43,1.04-3.77.71-1.39-.35-2.84-.51-4.25-.76-.34-.06-.68-.15-1-.26-1.32-.44-2.63-.89-4.03-.97-.5-.03-.69-.25-.68-.62.02-.47.37-.58.72-.57,1.24.03,2.49.06,3.72.15,1.03.08,2.08.16,3.09.37,1.89.4,3.83.64,5.57,1.56.15.08.29.18.63.39Z"/>
      <path class="cls-2" d="M46.67,99.22c.07-.16.14-.51.33-.79.39-.56.75-1.14,1.36-1.55.62-.41,1.11-1.02,1.71-1.46.81-.6,1.65-1.16,2.53-1.65,1.11-.62,2.27-1.16,3.42-1.71.53-.26.79-.12.85.42.02.15-.05.34-.15.45-.31.34-.62.7-.99.98-1.73,1.3-3.46,2.6-5.22,3.86-.94.67-1.93,1.26-2.91,1.88-.1.06-.2.11-.31.15-.51.21-.63.13-.63-.58Z"/>
      <path class="cls-2" d="M50.67,106.41c.07-.45.12-.9.21-1.35.45-2.08,1.21-4.04,2.33-5.86.62-1.01,1.2-2.05,1.74-3.11.53-1.03,1.44-1.64,2.33-2.28.1-.07.34-.12.38-.07.09.12.12.3.14.45,0,.08-.06.16-.09.24-1.61,3.51-3.28,6.98-5.44,10.19-.43.64-.92,1.24-1.39,1.86-.07-.02-.14-.05-.21-.07Z"/>
      <path class="cls-2" d="M56.65,89.95c-3.04-.49-5.96-.84-8.67-2.07-.58-.26-1.21-.41-1.78-.69-.65-.31-1.27-.68-1.86-1.09-.2-.14-.4-.49-.36-.71.05-.35.45-.26.73-.28,1.93-.13,3.73.35,5.42,1.22,2.09,1.07,4.15,2.19,6.22,3.29.08.04.14.15.3.33Z"/>
      <path class="cls-2" d="M55.51,104.34c.23-1.38.48-2.94.76-4.5.32-1.75,1.15-3.32,1.83-4.95.07-.16.15-.31.24-.46.16-.3.41-.25.68-.17.3.1.27.3.23.55-.3,1.82-.6,3.63-.87,5.45-.3,2.03-1.07,3.89-1.98,5.7-.07.13-.22.23-.34.34-.09-.14-.24-.26-.27-.41-.1-.45-.16-.91-.27-1.55Z"/>
      <path class="cls-2" d="M59.54,98.75c.08-1.51.14-2.78.23-4.05.01-.16.16-.32.25-.48.15.11.34.2.45.35.52.71.57,1.56.69,2.38.16,1.08.23,2.18.42,3.25.31,1.69.31,3.39.26,5.1,0,.3-.21.81-.41.85-.39.08-.62-.32-.78-.68-.59-1.28-.79-2.64-.88-4.03-.06-.98-.15-1.95-.21-2.7Z"/>
      <path class="cls-2" d="M74.38,96.18c-1.91.3-10.45-4.12-12.14-5.62,4.74.5,8.78,2.22,12.14,5.62Z"/>
      <path class="cls-2" d="M68.65,100.3c-.34-.2-.76-.33-1.02-.61-1.69-1.78-3.53-3.43-4.86-5.52-.37-.59-.71-1.19-1.02-1.81-.07-.14.04-.36.07-.55.16.04.36.04.46.14.85.82,1.7,1.64,2.52,2.49.64.66,1.33,1.31,1.85,2.06.72,1.05,1.29,2.19,1.91,3.29.08.14.06.34.09.51h0Z"/>
      <path class="cls-2" d="M61.46,92.65c.12.19.21.3.25.43.65,1.73,1.65,3.23,2.94,4.55.18.18.32.41.43.64.28.57.49,1.18.8,1.73.35.62.35,1.24.26,2.09-.6-.75-1.14-1.33-1.59-1.98-1.3-1.9-2.57-3.84-3.85-5.75-.18-.28-.21-.49.05-.76.25-.26.43-.58.69-.94Z"/>
      <path class="cls-2" d="M68.65,100.3s.05.03.07.04c-.02-.01-.05-.03-.07-.04,0,0,0,0,0,0Z"/>
    </g>
  </g>
</svg>