<?xml version="1.0" encoding="UTF-8"?>
<svg id="Layer_2" data-name="Layer 2" xmlns="http://www.w3.org/2000/svg" viewBox="0 0 77.53 156.4">
  <defs>
    <style>
      .cls-1 {
        fill: #d878c0;
      }

      .cls-1, .cls-2 {
        stroke-width: 0px;
      }

      .cls-2 {
        fill: #547952;
      }
    </style>
  </defs>
  <g id="Layer_1-2" data-name="Layer 1">
    <g>
      <path class="cls-1" d="M29.43,47.46c-.62.28-1.23.56-1.85.83-1.32.58-2.73.77-4.14.96-1.55.22-3.12.33-4.68.39-2.07.08-4.16.13-6.24-.06-.89-.08-1.78-.09-2.67-.16-.99-.07-1.97-.16-2.95-.33-1.37-.25-2.31-1.03-2.84-2.32-.33-.8-.13-1.34.64-1.73.56-.29,1.18-.41,1.79-.57,1.82-.5,3.58-.16,5.33.37,1.04.31,2.1.56,3.17.75.25.04.51.04.78.01-.85-.48-1.77-.75-2.66-1.11-.68-.28-1.33-.58-1.66-1.31-.13-.29-.41-.4-.71-.44-1.51-.16-3.02-.29-4.53-.48-.93-.11-1.87-.13-2.79-.38-1.53-.42-2.59-1.37-3.25-2.77-.36-.77-.11-1.34.7-1.56.81-.22,1.64-.38,2.5-.37,1.08.01,2.16,0,3.25,0-.02-.28-.23-.29-.36-.36-1.51-.7-2.85-1.64-3.99-2.85-.65-.69-1.1-1.53-1.39-2.44-.3-.94.07-1.51,1.03-1.78.83-.23,1.66-.29,2.51-.26,0,.02.01.04.03.05,0,0,.03,0,.04,0-.02-.02-.05-.04-.07-.06.03-.26-.19-.37-.33-.53-1.34-1.47-2.51-3.07-3.37-4.87-.25-.52-.48-1.06-.49-1.65,0-.71.27-1.05.95-1.24.88-.25,1.69-.18,2.51.28,1.55.87,2.95,1.94,4.36,3,1.84,1.38,3.66,2.77,5.49,4.16.54.41,1.18.63,1.87.95-.02-.65-.3-1.15-.29-1.7,0-.18-.23-.22-.38-.3-.73-.38-1.47-.73-2.19-1.13-2-1.11-3.8-2.49-5.52-3.99-1.67-1.46-3.13-3.09-4.33-4.95-.42-.65-.75-1.35-1.08-2.06-.21-.45-.31-.91-.27-1.41.04-.45.23-.76.69-.9,1.03-.32,2.01-.34,3.01.19,1.06.55,2.02,1.24,2.98,1.92.02.06.06.09.09.06.03-.04,0-.08-.06-.09-.2-.73-.66-1.33-.99-2-.42-.85-.8-1.7-.99-2.64-.2-.96.16-1.49,1.1-1.77.41-.12.88-.04,1.27-.34-.32-.7-.63-1.41-.95-2.11-.52-1.15-.89-2.35-1.03-3.61-.05-.41-.03-.81.09-1.22.17-.56.51-.87,1.07-1.06,1.29-.44,2.32.05,3.25.86,1.96,1.69,3.38,3.77,4.41,6.13.09.21.14.46.39.64.1-.29.02-.51-.02-.73-.36-1.8-.72-3.59-.79-5.43,0-.07,0-.15,0-.22.03-1.45,1.17-2.12,2.49-1.51.82.38,1.29,1.07,1.71,1.81,1.11,1.96,1.74,4.08,2.18,6.27.11.54.13,1.1.38,1.74.18-1.05.32-1.96.5-2.88.23-1.19.54-2.35,1.09-3.44.43-.87,1.06-1.42,2.04-1.55.17-.02.33-.06.5-.09,1.08-.22,2.18.35,2.58,1.37.42,1.09.47,2.21.22,3.35-.05.21-.09.42-.15.7.96-.09,1.18.58,1.32,1.3.54-.11,1.03-.21,1.52-.31.92-.18,1.69.35,1.95,1.27.09.31-.05.77.28.9.25.1.61-.07.91-.13,1.16-.22,2.01.41,2.11,1.57,0,.09.02.19.03.27.19.13.28-.02.38-.11.53-.44,1.2-.51,1.83-.64,1.03-.21,1.04-.2,1.9.3.55.32.53.9.48,1.42-.1,1.02-.42,1.98-.82,2.92-.4.93-.78,1.86-1.14,2.74.05.12.1.15.15.11.72-.66,1.65-.75,2.55-.92.48-.1,1.21.43,1.22.87.02,1.93.1,3.87-.51,5.75-.42,1.29-.91,2.55-1.46,3.79-.09.21-.29.4-.17.68.27-.1.3-.37.4-.57.58-1.18,1.26-2.28,2.04-3.34.45-.61,1.01-1.01,1.78-1.13.64-.1,1.26-.32,1.91-.39.05,0,.09-.02.14-.04.74-.25,1.18.44,1.79.6.72.19.86.82.92,1.49.23,2.74-.46,5.25-1.87,7.59-1.04,1.72-2.28,3.3-3.64,4.78-.67.73-1.31,1.48-1.98,2.21-.79.86-1.68,1.6-2.56,2.36-.16.14-.39.21-.42.47,0,0,0-.02,0-.02-.09,0-.16.04-.16.15h0c-.17-.03-.26.07-.3.21-.62.31-1.23.63-1.86.93-1.05.51-2.1,1.05-3.19,1.46-.39-.6-.27-.64-1-.31-.29.13-.57.26-.85.39-.65.06-1.3.07-1.91.32-.45.18-.82.42-.75,1ZM12.41,14.53s-.03-.02-.05-.03c.02,0,.04.02.06.02.02.07.07.13.15.15.28.67.68,1.28.78,2.02.06-.25.04-.51.14-.71.15-.33.03-.56-.19-.77-.22-.21-.42-.46-.75-.53-.05-.05-.1-.1-.14-.15ZM40.16,30.94c-.15.05-.16.17-.14.3-.07,0-.13.01-.06.1.02-.03.04-.07.06-.1.13-.05.15-.17.15-.29.08-.03.12-.08.11-.16,0-.06-.06-.08-.08-.05-.03.06-.03.13-.05.2ZM29.56,29.06c-.72.54-.84,1.3-.79,2.12.21-.73.73-1.34.79-2.13l.04-.04s-.02.03-.03.05ZM11.54,21.5s.02.04.03.06c0,0,.05,0,.05,0,.01-.05-.01-.07-.07-.07.01-.4-.09-.77-.4-1.05-1.44-1.33-2.93-2.6-4.6-3.64-.23-.14-.46-.34-.77-.34.02.23.17.34.28.46,1.01,1.07,2.06,2.12,3.22,3.03.72.56,1.41,1.18,2.26,1.55ZM9.39,2.99c.04.44.17.72.29,1,.8,1.9,1.79,3.69,2.91,5.42.97,1.49,1.87,2.99,2.05,4.8.02.21.07.43.1.64.04.25.13.43.43.32.33-.12.6.02.9.15.25.12.47.33.78.35.12-.27,0-.49-.07-.72-.33-.98-.66-1.97-.98-2.95-.35-1.11-.81-2.17-1.31-3.21-.91-1.87-2.11-3.52-3.66-4.9-.39-.35-.81-.67-1.43-.9ZM19.61,17.81c-.07-.56-.16-1.08-.21-1.6-.2-2.18-.4-4.37-.75-6.53-.27-1.67-.63-3.32-1.17-4.92-.2-.6-.39-1.22-.78-1.77-.13.18-.09.33-.09.46-.05,1.82.27,3.6.53,5.39.23,1.55.56,3.08.88,4.62.05.25.12.53-.17.73-.48-.23-.41-.83-.76-1.18-.07.25,0,.43.03.62.13.73.32,1.47.35,2.21.02.48.11.87.35,1.28.58.98.57.99,1.78.7ZM15.76,42.91c.09.17.24.21.36.26,1.64.73,3.32,1.33,5.07,1.71.33.07.65.21,1,.17,1.12-.14,2.22-.36,3.37-.29-.01-.37-.2-.49-.43-.61-.48-.25-.98-.36-1.52-.42-1.39-.15-2.77-.37-4.16-.52-1.22-.14-2.41-.53-3.7-.3ZM11.79,28.95c-2.46-1.62-4.84-3.3-7.46-4.62,1.73,2.32,3.82,4.2,6.43,5.59.13-.6.55-.77,1.04-.97ZM22.42,30.07c.24-.2.17-.41.15-.57-.16-1.05-.33-2.09-.49-3.14-.22-1.46-.71-2.85-1.13-4.26-.14-.46-.36-.88-.79-1.27,0,.33-.03.58,0,.83.2,1.6.72,3.15.86,4.76.01.16.04.39.15.47.35.27.33.74.61,1.04.08.09.14.22.05.33-.14.16-.25,0-.37-.07-.08-.05-.16-.11-.31-.03-.08.97.92,1.19,1.26,1.91ZM22.51,16.5c.39-.42.85-.53,1.33-.57.27-.02.32-.23.36-.46.19-1.12.33-2.24.27-3.38-.03-.64-.17-.72-.76-.52-.4.14-.64.36-.7.82-.11.83-.32,1.66-.39,2.49-.04.49-.27.98-.12,1.62ZM11.74,18.76c.62,1.1,3.4,3.52,4.15,3.64-.92-1.37-1.63-2.83-2.25-4.37-.57.46-1.13.79-1.9.73ZM32.39,25.62c.29-.01.55-.1.81-.07.46.06.67-.18.87-.57.6-1.21,1.15-2.45,1.66-3.7.19-.46.35-.94.52-1.41-.05-.02-.09-.05-.14-.07-1.36,1.85-2.5,3.84-3.71,5.82ZM26.35,9.73c.34-.54.34-.53.06-.89-.12-.15-.22-.32-.31-.48-.43-.74-.78-1.51-1-2.45-.8.95-1.06,1.97-1.34,3.12,1.06-.31,1.82.13,2.59.7ZM21.59,33.52c.22.64.37,1.29.99,1.74.52.38.98.85,1.47,1.28.39.34.78.67,1.19,1.02.13-.23.05-.43.09-.61.09-.54-.13-.91-.54-1.24-.9-.72-1.82-1.43-2.76-2.1-.1-.08-.22-.2-.43-.09ZM5.18,32.15c1.14,1,5.4,2.5,6.9,2.49-2.07-1.27-4.07-2.1-6.9-2.49ZM4.34,39.72c1.33.31,2.68.35,4.02.51,1.34.16,2.69.24,4,.56.57.14,1.06-.07,1.68-.31-3.3-.68-6.5-.82-9.7-.76ZM26.21,44.65c.29.22.57.23.87.24.31.01.65-.06.92.12.29.18.54.11.81.01.6-.21.97-.66,1.32-1.23-.72-.13-1.37-.26-2.05-.18.07.11.17.1.26.11.27.05.75-.08.73.26-.02.41-.5.22-.78.21-.72-.03-1.43-.1-2.08.46ZM33.3,13.59c-.38,1.53-.69,3.07-1,4.62.41-.47.73-.97,1.06-1.47.08-.13.13-.26.09-.41-.22-.9-.07-1.82-.15-2.74ZM39.35,25.67c-.17,0-.2.11-.24.19-.61,1.34-1.3,2.64-1.98,3.95-.1.19-.35.47-.03.62.39.19.4-.23.49-.44.53-1.22,1.04-2.44,1.56-3.67.09-.21.21-.42.19-.66ZM37.37,36.39c.66-.22.68-.88.93-1.37.28-.53.51-1.09.76-1.64.24-.53.56-1.02.67-1.61-.84,1.5-1.57,3.06-2.36,4.61ZM27.16,12.66c.63-.81.63-1.77.77-2.79-.94.79-1.14,1.69-.77,2.79ZM27.91,22.05c-.45.88-.45.9.29,1.21.31.13.49.37.67.63.12.18.07.44.33.58.15-.25.24-.5.29-.83-.67-.32-1.24-.78-1.58-1.6ZM17.67,39.26c-.22-.18-.44-.37-.66-.55-.59-.49-.69-.49-1.35.07.65.29,1.32.44,2.01.48ZM28.83,36.49c-.67.59-.94,1.6-.78,2.73.26-.92.51-1.78.78-2.73ZM35.14,43.34c-.78.2-1.44.55-1.74.94.75-.02,1.35-.25,1.74-.94ZM25.2,23.17c.4.02.65-.04.73-.45.06-.37.17-.73.26-1.09-.42.45-.71.96-.98,1.54ZM27.24,46.36c-.56.06-1.14.05-1.71.54.68-.12,1.21-.27,1.71-.54ZM15.89,8.48s-.04-.08-.06-.13c-.02.03-.07.07-.07.1,0,.06,0,.14.08.14.01,0,.03-.08.05-.12ZM27.61,43.58s.08-.03.12-.05c-.04-.02-.07-.05-.11-.06-.04,0-.08.03-.12.04.04.02.07.04.11.06ZM40.53,30.1s-.04.03-.04.04c0,.02.02.03.03.05.01-.01.04-.03.04-.04,0-.02-.02-.03-.03-.05ZM40.68,29.81s-.04.03-.04.05c0,.02.02.03.03.05.01-.01.04-.03.04-.05,0-.02-.02-.03-.03-.05ZM40.82,29.52s-.04.03-.04.05c0,.02.02.03.03.05.01-.02.04-.03.04-.05,0-.02-.02-.03-.03-.05ZM40.42,30.44s-.02-.03-.03-.05c-.01.01-.04.03-.04.04,0,.02.02.03.03.05l.04-.04Z"/>
      <path class="cls-2" d="M29.43,47.46c-.07-.57.3-.82.75-1,.61-.25,1.27-.26,1.91-.32.62.11,1.26.41,1.85-.08,1.1-.41,2.14-.95,3.19-1.46.62-.3,1.24-.62,1.86-.93.1-.07.27-.06.3-.22,0,0,0,0,0,0,.1,0,.22.02.16-.15,0,0,0,.02,0,.02.47.05.8-.26,1.18-.44,2.15-1,4.32-1.96,6.57-2.71.53-.18,1.06-.34,1.6-.45.69-.14,1.18.16.92,1.03-.16.53-.47.94-.93,1.25-1.06.73-2.19,1.33-3.36,1.85-1.9.85-3.91,1.4-5.92,1.92-.29.07-.63.07-.88.33.18.11.35.07.5.06,1.48-.15,2.93.04,4.36.43.67.18.75.37.54,1.04-.16.54-.45.83-1.05.93-1.34.21-2.67.42-4.03.43-.64,0-1.28.09-2,.14.44.57.84,1.08,1.23,1.59.09.11.17.24.27.34,1.04,1.08.92,2.24.26,3.45-.27.49-.51.63-1.06.54-.46-.08-.88-.28-1.27-.52-1.04-.63-1.99-1.37-2.77-2.32-.1-.13-.23-.24-.35-.37-.41.7-.42.82.03,1.26,3.11,3.02,5.44,6.59,7.46,10.39,1.11,2.07,2.27,4.1,3.25,6.24,1.13,2.45,1.82,5.04,2.39,7.66.23,1.06.5,2.12.74,3.17.03.14.07.28.21.43.26-1.1.32-2.19.17-3.27-.19-1.34-.32-2.68-.41-4.03-.1-1.47-.17-2.94-.26-4.41-.09-1.38-.03-2.75.26-4.11.1-.46.13-.93.02-1.36-.29-1.13-.13-2.26-.1-3.39,0-.29,0-.58,0-.87.02-2.66,0-5.32.5-7.94.25-1.3.83-2.47,1.45-3.62.74-1.36,1.49-2.71,2.27-4.05.47-.8,1.03-1.52,2.05-1.69.82-.14,1.16.13,1.04.96-.06.46-.07.91-.13,1.37-.22,1.6-.38,3.21-.7,4.8-.8,4.04-1.85,8-3.77,11.69-.39.75-.75,1.52-1.11,2.28-.38.8-.5,1.67-.64,2.52-.31,1.89-.34,3.79-.19,5.7.1,1.25.05,2.52.07,3.77,0,.19,0,.38,0,.57.27.02.23-.16.26-.29.27-1.4.51-2.8.82-4.19.66-2.92,1.85-5.65,3.25-8.28.39-.73.75-1.45.97-2.26.61-2.29,1.91-4.22,3.39-6.03,1.42-1.74,2.94-3.41,4.64-4.89,2.25-1.97,4.78-3.43,7.7-4.19,1.4-.37,2.82-.71,4.26-.83.83-.07,1.67.03,2.46-.35.08-.04.19-.02.29-.02.7-.02.77.06.58.72-.26.89-.65,1.68-1.32,2.37-.74.76-1.32,1.66-2.01,2.47-1.35,1.6-3.01,2.86-4.64,4.16-3.75,2.98-8.03,4.9-12.57,6.3-.44.13-.98.07-1.3.38-.29.29-.37.77-.57,1.16-.86,1.62-1.76,3.22-2.53,4.9-.94,2.07-1.71,4.2-2.14,6.45-.38,1.94-1.11,3.81-1.3,5.79-.08.88-.25,1.73-.52,2.57-.03.09-.03.19-.03.29,0,.04.04.08.1.18.38-1.15.88-2.21,1.4-3.24,1.46-2.88,3.44-5.37,5.87-7.49.29-.25.6-.51.94-.67.59-.28,1.01-.74,1.43-1.2,2.16-2.4,4.56-4.54,7.23-6.36,2.71-1.85,5.69-2.94,8.94-3.36.6-.08,1.2-.12,1.8-.15.74-.03,1.37.24,1.99.59.35.2.36.4.07.68-.07.07-.15.12-.23.17-.71.46-1.4.93-1.8,1.72-.11.22-.32.37-.53.49-2.91,1.63-5.74,3.42-8.78,4.8-2.36,1.07-4.88,1.68-7.42,2.18-.59.11-1.06.31-1.45.82-.52.7-1.2,1.26-1.82,1.87-2.79,2.73-5.16,5.76-6.7,9.38-.25.58-.39,1.19-.53,1.81-.06.26-.02.52.03.79.33,2,.58,4.01.81,6.02.05.43.1.86.15,1.29.01.12.02.25.09.34.98,1.4,1.39,2.99,1.62,4.66.3,2.13.49,4.26.71,6.4.04.38.01.77.02,1.16.02.94.07,1.86.4,2.77.31.87.19,1.82.2,2.74.02,2.2.07,4.41-.04,6.61-.06,1.18-.16,2.36-.31,3.53-.11.85-.08,1.69-.11,2.53-.1,2.85-.3,5.68-.79,8.49-.13.76-.17,1.54-.19,2.31-.04,1.4.06,2.81-.06,4.21-.16,1.85-.13,3.71-.51,5.54-.05.23-.06.48-.06.72.05,2.01-.32,4-.26,6.01.01.36-.05.73-.16,1.07-.43,1.41-.7,2.87-1.36,4.2-.09.17-.16.36-.3.49-.22.22-.46.28-.76.06-1.12-.81-1.7-2.26-1.42-3.63.18-.87.49-1.72.56-2.62,0-.1.05-.19.05-.28-.05-1.77.41-3.5.49-5.26.04-.97.42-1.88.59-2.83.26-1.38.42-2.77.41-4.17,0-1.74.13-3.48.15-5.22.01-.92.2-1.82.31-2.73.15-1.22.23-2.45.27-3.68.06-2.13-.06-4.26.05-6.39,0-.18-.07-.33-.14-.48-1.86-4.11-3.97-8.1-6.9-11.56-1.89-2.24-4.16-4.12-6.77-5.53-.69-.37-1.48-.44-2.23-.61-1.72-.39-3.47-.59-5.22-.81-1.8-.22-3.56-.66-5.35-.91-2.46-.33-4.84-.95-7.15-1.81-3.06-1.13-5.88-2.72-8.41-4.79-.43-.35-.8-.77-1.2-1.16-.08-.08-.17-.18-.1-.35.22-.11.49-.07.74-.09,1.88-.11,3.72.19,5.52.64,1.9.47,3.82.86,5.69,1.43,3.33,1.01,6.61,2.18,9.87,3.4,2.43.92,4.64,2.29,6.87,3.58,1.28.74,2.52,1.52,3.71,2.4.07.04.14.15.22.05.09-.1-.03-.15-.07-.21-1.24-1.62-2.66-3.07-4.23-4.37-1.17-.97-2.35-1.93-3.52-2.91-.23-.19-.5-.28-.77-.38-2.31-.87-4.62-1.73-6.82-2.87-2.84-1.47-5.62-3.03-8.1-5.09-2.96-2.46-5.17-5.47-6.66-9.02-.23-.56-.47-1.11-.67-1.68-.16-.47-.05-.6.44-.63.42-.03.82.05,1.22.16,2.82.8,5.38,2.12,7.78,3.78,2.15,1.5,4.09,3.24,6.02,5.01,1.94,1.78,3.64,3.74,5.1,5.92.28.42.53.87.82,1.28,1.02,1.41,2.39,2.46,3.74,3.51,1.85,1.45,3.69,2.9,5.35,4.56.49.49.91,1.06,1.36,1.59.11.13.19.28.42.34.36-.71.06-1.36-.27-1.93-.38-.64-.82-1.26-1.35-1.8-2.54-2.56-4.34-5.59-5.92-8.82-1.35-2.76-1.85-5.63-1.69-8.65.05-.99.17-1.98.64-2.88.2-.38.11-.86.4-1.22.12-.03.21.05.28.14.37.48.69,1.01,1.12,1.43,1.67,1.64,2.3,3.82,3.05,5.91,1.37,3.83,2.33,7.77,3.18,11.74.53,2.46,1.16,4.89,1.74,7.33.09.37.29.65.53.93,2.05,2.49,3.97,5.07,5.53,7.89.71,1.29,1.32,2.63,1.91,3.99.09.22.16.46.32.65.24-.1.13-.29.13-.43.01-.82,0-1.65,0-2.47.01-1.96-.02-3.92.06-5.88.08-1.91.06-3.83-.08-5.73-.13-1.85-.39-3.69-.61-5.54-.19-1.58-.42-3.15-.63-4.73-.05-.41-.06-.82-.27-1.19-.06-.1-.07-.23-.06-.35.06-1.93-.36-3.79-.74-5.66-.74-3.67-1.69-7.3-2.78-10.88-.54-1.79-1.37-3.47-2.24-5.11-1.57-2.94-3.07-5.93-4.83-8.77-.78-1.25-1.58-2.49-2.39-3.73-.47-.72-1.02-1.39-1.62-2.03-.24.25-.25.53-.33.77-.42,1.34-.9,2.66-1.59,3.89-.21.38-.41.84-.92.81-.46-.03-.71-.42-.95-.8-.38-.59-.54-1.22-.51-1.92.03-.82.11-1.64.17-2.46.02-.2,0-.41,0-.76-.54.49-.98.89-1.41,1.29-1,.92-1.98,1.85-2.99,2.76-.27.24-.56.46-.87.65-.39.23-.68.16-.94-.21-.35-.5-.54-1.01-.21-1.61.27-.49.49-.99.73-1.49.07-.06.17-.14.11-.21-.1-.11-.19,0-.28.07-.55.26-1.09.52-1.64.77-.65.3-.86.22-1.23-.41-.06-.1-.13-.2-.18-.31-.2-.43-.16-.65.18-.97.19-.18.41-.34.63-.48,2.13-1.43,4.42-2.6,6.61-3.93.68-.41,1.4-.76,1.98-1.33.17-.17.35-.34.5-.52.08-.1-.02-.17-.1-.22ZM28.12,51.59c.04-.05.09-.11.13-.16.09-.01.13-.06.15-.14.3-.2.57-.42.73-.74-.34.16-.74.27-.72.75-.14-.04-.18,0-.15.14-.14-.02-.17.04-.13.16-.13-.04-.18.01-.14.15-.09-.06-.17-.02-.24.04-.01,0,0,.06,0,.06.1.01.16-.04.22-.12.05-.05.1-.1.15-.14ZM24.33,55.21c.23-.12.4-.3.55-.52.32-.29.64-.58.95-.88.29-.28.58-.58.87-.86.29-.28.64-.5.83-.87-1.75.87-1.91,1.01-2.84,2.43-.19.19-.39.39-.36.69-.02,0-.04,0-.05.02,0,0,0,.03-.01.04.02-.02.05-.04.07-.06Z"/>
      <path class="cls-1" d="M24.68,54.52c.06.06.13.12.19.18-.14.21-.31.4-.55.52h0c-.03-.31.17-.5.36-.7Z"/>
      <path class="cls-1" d="M24.33,55.21s-.05.04-.07.06c0-.01,0-.03.01-.04.01-.01.03-.01.05-.02,0,0,0,0,0,0Z"/>
    </g>
  </g>
</svg>