<?xml version="1.0" encoding="UTF-8"?>
<svg id="Layer_2" data-name="Layer 2" xmlns="http://www.w3.org/2000/svg" viewBox="0 0 79.31 161.72">
  <defs>
    <style>
      .cls-1 {
        fill: #d878c0;
      }

      .cls-1, .cls-2 {
        stroke-width: 0px;
      }

      .cls-2 {
        fill: #547952;
      }
    </style>
  </defs>
  <g id="Layer_1-2" data-name="Layer 1">
    <g>
      <path class="cls-2" d="M43.53,38.43c.1,0,.19-.02.29-.02,1.14-.04,1.19.02,1,1.12-.13.78-.24,1.56-.35,2.34-.72,3.59-2.15,6.99-2.92,10.56-1.52,7.05-3.38,14.01-4.7,21.1-.22,1.18-.4,2.38-.58,3.57-.04.3-.15.62.02.97.4.05.49-.31.66-.54,1.61-2.15,3.45-4.08,5.63-5.66.28-.2.57-.45.9-.54.87-.22,1.35-.84,1.84-1.52,2.72-3.74,6.08-6.81,9.82-9.52,2.99-2.17,6.22-3.7,9.79-4.55,1.11-.27,2.23-.51,3.39-.47,1.12.05,1.42.49,1.02,1.54-.23.6-.56,1.11-1.07,1.54-1.26,1.06-2.46,2.2-3.72,3.28-1.6,1.38-3.46,2.35-5.31,3.36-4.1,2.25-8.43,4.06-12.32,6.69-2.08,1.41-4.15,2.84-6.06,4.48-.21.18-.51.29-.5.69.39.07.64-.22.91-.38,2.35-1.42,4.76-2.69,7.38-3.54,1.12-.36,2.28-.58,3.39-.98.51-.19,1.03-.33,1.49-.62.18-.12.4-.21.62-.24,1.87-.24,3.6-1,5.43-1.42,2.99-.68,6-1.09,9.07-.82,1.86.16,3.62.66,5.21,1.67,1.05.67,1.15,1.15.75,2.31-.51,1.48-1.67,1.79-3,1.88-1.4.1-2.79-.08-4.18-.23-2.52-.28-5.03-.61-7.55-.91-1.54-.18-3.09-.33-4.63-.51-.96-.11-1.89.13-2.84.24-4.03.49-7.61,2.17-11.1,4.13-.68.38-1.34.79-2.06,1.21.32.2.54.11.74.07,1.69-.32,3.39-.49,5.1-.56.19,0,.41.04.57-.04.88-.48,1.73-.22,2.57.09.31.11.61.13.93.15,2.79.18,5.57.45,8.31,1.02,1.82.38,3.51,1.13,5.07,2.14,1.39.9,2.77,1.81,4.14,2.73.74.49.85.88.51,1.69-.5,1.19-.82,1.36-2.13,1.15-3.9-.63-7.55-2-11.07-3.72-1.6-.78-3.19-1.59-4.78-2.38-.63-.31-1.24-.65-1.96-.7-.28-.02-.45-.21-.66-.35-.73-.46-1.53-.77-2.4-.82-2.01-.11-3.99.22-5.98.43-.45.05-.57.36-.74.65-1.18,1.9-2.09,3.9-2.62,6.1-.67,2.75-1.51,5.45-1.94,8.26-.23,1.48-.44,2.95-.53,4.45-.09,1.62-.48,3.2-.8,4.79-.88,4.39-1.61,8.8-2.07,13.25-.1.98-.18,1.95-.13,2.94.06,1.25-.32,2.46-.46,3.69-.27,2.37-.59,4.72-.89,7.09-.21,1.67-.6,3.31-1.01,4.94-.43,1.73-.6,3.5-.75,5.27-.16,1.89-.33,3.79-.49,5.68-.04.44-.05.85.21,1.28.31.51.19,1.12.09,1.68-.44,2.37-.79,4.76-1.05,7.15-.1.88-.09,1.77-.23,2.65-.11.67-.37,1.28-.71,1.86-.3.53-.63.62-1.08.23-1.43-1.26-2.62-2.68-2.62-4.75,0-1.46-.24-2.91-.25-4.37-.02-1.6.14-3.17.38-4.74.28-1.91.46-3.84.72-5.76.31-2.3.96-4.53,1.45-6.8.83-3.85,1.62-7.71,2.48-11.55.47-2.08.88-4.16,1.29-6.25.09-.46.01-.85-.24-1.26-1.15-1.83-2.36-3.63-3.63-5.38-.23-.32-.45-.57-.95-.65-.53-.08-.95-.6-1.35-1-.74-.75-1.47-1.5-2.18-2.28-2.69-2.96-6.01-4.97-9.62-6.57-1.4-.62-2.82-1.15-4.23-1.74-.79-.33-1.55-.74-2.26-1.23-.98-.66-1.49-1.63-1.84-2.71-.27-.85-.12-1.63.54-2.27.09-.09.19-.17.24-.28.18-.4.31-.82.84-.96.63-.17,1.22-.23,1.86.02,4.15,1.68,8.14,3.61,11.52,6.63,1.33,1.18,2.74,2.28,3.96,3.59.11.12.22.23.35.33.12.1.26.19.41.05.12-.12.04-.25-.02-.34-.28-.46-.56-.93-.87-1.36-3.72-5.09-7.47-10.14-11.15-15.25-2.36-3.28-4.51-6.7-6.23-10.38-.47-1.01-.91-2.03-1.14-3.13-.04-.19-.1-.37-.11-.56,0-.46-.24-1.01.29-1.3.54-.29,1.14-.41,1.73-.07.84.49,1.48,1.2,2.06,1.96,3.39,4.47,6.42,9.17,9.1,14.1,1.23,2.26,2.63,4.44,3.6,6.83.95,2.35,2.42,4.39,3.66,6.57.64,1.14,1.23,2.28,1.67,3.52.69,1.95,1.56,3.83,2.27,5.76.67,1.82,1.38,3.62,2.27,5.35.05-.02.14-.03.14-.06.25-1.24.49-2.48.72-3.73.05-.26-.06-.5-.13-.75-.8-3.04-1.66-6.06-2.26-9.16-.15-.81-.46-1.61-1.23-2.15-.35-.24-.38-.79-.55-1.2-.15-.35-.21-.74-.39-1.07-1.96-3.58-3.46-7.36-4.96-11.15-1.15-2.91-2.16-5.84-2.61-8.95-.26-1.79-.48-3.59-.49-5.4,0-.81-.14-1.58-.33-2.35-.35-1.4-.46-2.82-.39-4.26.02-.42-.04-.95.54-1.09.64-.15,1.06-.03,1.43.45,1.43,1.84,2.69,3.75,3.52,5.97.91,2.44,1.89,4.86,2.45,7.41.57,2.57.98,5.17,1.38,7.78.32,2.07.55,4.15.62,6.25.02.63.13,1.26.35,1.86.95,2.61,1.52,5.3,1.88,8.05.32,2.49.84,4.94,1.4,7.41.24-.13.27-.33.31-.54.81-4.43,1.52-8.88,2.16-13.34.5-3.45,1.08-6.89,1.62-10.34.47-3.04.91-6.08,1.39-9.12.34-2.13.87-4.23,1.4-6.32.29-1.14.55-2.28.83-3.43.04-.15.06-.31.06-.47.04-4.03.63-7.97,1.96-11.78,1.17-3.36,2.33-6.73,3.78-9.98.53-1.18,1.02-2.41,1.95-3.36Z"/>
      <path class="cls-1" d="M43.53,38.43c-.09-.47.1-.93.11-1.43-.4.11-.48.46-.64.71-.89,1.35-1.74,2.74-2.78,3.99-.26.32-.56.61-.87.88-1,.85-1.83.44-2.47-.5-.62-.92-1.08-1.93-.79-3.23-.6.38-1.03.69-1.5.95-1.36.75-2.33.4-3.19-.92-1.29-1.99-1.44-4.02-.45-6.16.07-.14.14-.29.05-.52-.6.06-1.23.06-1.83.21-1.3.33-2.7-.5-3.29-1.56-.22-.39-.43-.78-.62-1.18-.44-.96-.36-1.31.4-2.02.54-.5,1.17-.88,1.78-1.28.63-.42,1.27-.82,1.9-1.23-.18-.4-.52-.32-.77-.38-1.98-.55-3.3-1.84-4.13-3.67-.53-1.17-.35-1.98.67-2.78,1.04-.82,2.27-1.26,3.52-1.66.48-.16,1-.19,1.48-.5-.19-.36-.52-.56-.81-.77-1.48-1.04-2.49-2.44-3.18-4.09-.55-1.3-.15-2.27,1.18-2.71,1.54-.51,3.12-.83,4.76-.58.33.05.69.13,1.03-.02.1-.27-.11-.42-.21-.6-.3-.56-.58-1.12-.73-1.76-.3-1.33.26-2.34,1.55-2.73.3-.09.61-.17.93-.22.67-.12,1.31-.16,1.45-1.1.08-.59.74-.71,1.29-.8,1.21-.19,2.15.41,3.07,1.05,1.15.79,1.94,1.91,2.73,3.01,1.45-1.65,2.79-3.43,4.9-4.34.68-.29,1.38-.51,2.12-.49.95.03,1.71.41,2.16,1.3.32.64.32.62,1.04.42,1.74-.49,3.49-.95,5.32-.94,1.01,0,1.85.43,2.65.95.9.57.74,1.52.58,2.34-.35,1.77-1.08,3.39-2.23,4.8-.31.38-.59.75-.57,1.27-.02.01-.05.02-.07.04-.01.01,0,.06,0,.06.06.01.08-.02.08-.09.64-.14,1.09-.62,1.61-.96.86-.56,1.75-1.02,2.76-1.24.58-.13,1.06,0,1.54.28.29.16.41.38.41.69,0,.57.03,1.13-.24,1.78,1.07-.17,2.02-.35,2.98-.46,1.43-.17,2.86-.15,4.21.45,1.13.5,1.37,1.11.96,2.29-.23.67-.56,1.28-1.11,1.73.09.31.32.17.47.2.95.21,1.29.72,1.03,1.66-.12.46-.35.89-.53,1.32-.23.55-.22.66.37.79,1.26.27,2.4.82,3.53,1.4.08.04.17.09.25.13,1.65.87,2.12,1.77,1.79,3.58-.23,1.22-.73,2.37-1.38,3.42-.49.8-1.31,1.19-2.17,1.47-1,.32-2.02.56-3.08.57-.46,0-.62.18-.6.62.07,2.13-.86,3.95-1.89,5.71-.88,1.5-2.97,2.45-4.6,1.95-.49-.15-.7,0-.79.49-.2,1.1-.65,2.12-1.16,3.11-.16.31-.33.62-.56.88-.93,1.05-1.96,1.26-3.1.42-.54-.4-1.07-.8-1.52-1.29-.43-.47-.76-1.01-1.21-1.62-.33.67-.61,1.26-.89,1.83-.3.6-.65,1.17-1.17,1.61-.87.76-1.73.8-2.69.16-1.08-.72-1.64-1.84-2.25-2.91-.14-.25-.27-.5-.43-.81-.4.31-.49.76-.69,1.13-.38.74-.79,1.47-1.43,2.01-1.07.91-1.87.82-2.78-.24-.12-.14-.24-.3-.35-.44.12-.78.22-1.56.35-2.34.18-1.09.14-1.16-1-1.12-.1,0-.19.01-.29.02ZM42.34,27.14c1.08-.59,1.26-.96.89-2.07-.22.73-.66,1.35-.88,2.08-.05.07-.25.1-.06.24.02-.08.03-.16.05-.25ZM32.84,23.18c.34.02.6-.19.89-.3,1.2-.48,2.35-1.13,3.76-1.14-.09-.44-.01-.83.17-1.2.07-.15.14-.32,0-.44-.49-.43-.91-1.01-1.59-1.14-.82-.16-1.58-.45-2.33-.79-.23-.11-.46-.26-.72-.17-1.31.44-2.62.89-3.88,1.79,1.88.51,3.61,1.04,3.63,3.33-.02.04-.05.08-.07.13l.13-.06ZM61.27,12.25c-1.31.06-2.41.75-3.55,1.27-.35.16-.49.58-.65.92-.14.3.15.45.27.66.2.36.17.74.06,1.11-.13.46-.36.86-.67,1.24-.69.85-.69,1.18-.15,1.91.18-.36.2-.85.66-.96.68-.16,1.4-.46,2.04-.34.61.11.94-.11,1.35-.38,1.12-.75,2.34-1.28,3.66-1.56.52-.11,1.06-.14,1.59.1.43.19.48.61.64.97,1.71-.99,3.3-2.03,4.53-3.73-2.44.27-4.56.95-6.52,2.14-.35.21-.72.55-1.13.44-.64-.17-1.09.1-1.57.42-.29.19-.61.34-.94.47-.63.24-1.24.2-1.8-.23-.71-.55-.69-.88.08-1.34.27-.16.73-.18.81-.46.3-.95,1.06-1.66,1.27-2.65.02,0,.05-.01.07-.03,0,0,0-.03,0-.05-.02.03-.04.06-.06.09ZM30.24,10.66c.68.74,1.46,1.06,2.18,1.44,1.61.84,3.29,1.48,5.12,1.72,1.05.14,2.15.37,2.59,1.58.03.08.11.16.19.2.62.33,1.24.65,1.87.96.16.08.31.03.42-.11.11-.14,0-.24-.1-.32-1.24-1.03-1.92-2.44-2.63-3.83-.33-.65-.94-.96-1.72-.87-.86.1-1.65-.06-2.32-.63-.22-.19-.46-.39-.74-.41-1.58-.1-3.16-.27-4.87.26ZM51.73,29.56c-.1,1.99-.08,3.79.22,5.58.2,1.18.47,2.36,1.07,3.43.1.18.17.43.46.39.81-1.24,1.37-4.04,1.04-5.38-.19-.77-.38-1.53-.5-2.31-.02-.16,0-.38-.16-.41-.81-.15-1.36-.75-2.13-1.28ZM41.4,28.62c-.07-.35-.25-.36-.44-.25-.64.35-1.24.78-1.91,1.06-.67.29-1.17.74-1.64,1.26-.32.35-.62.72-.91,1.09-.72.89-1.44,1.77-1.97,2.79-.15.28-.28.57-.35.88-.11.43.12.63.52.43.59-.3,1.16-.65,1.71-1.02.78-.52,1.39-1.16,1.77-2.05.25-.57.64-1.09,1.01-1.6.24-.33.51-.68.92-.8.96-.27.7-1.34,1.28-1.79ZM41.44,8.22c.3,1.38.78,2.65,1.59,3.78.17.24.41.28.68.19.87-.31,1.46.08,1.98.73.24.3.49.59.73.88.11.13.25.24.4.13.15-.1.13-.27.06-.43-.15-.35-.3-.7-.44-1.05-.68-1.73-1.78-3.13-3.26-4.24-.31-.23-.67-.37-1.04-.45-.44-.09-.72.13-.7.48ZM70.64,23.45c-1.42-.4-2.88-.43-4.32-.3-1.27.11-2.16-.33-2.8-1.37-.17-.28-.35-.43-.7-.28-.32.14-.45.31-.31.66.12.3.09.63.1.94.04,1.09-.04,2.15-.5,3.17-.27.59-.16,1,.32,1.11.79.17,1.11.78,1.52,1.33.58.76,1.16,1.52,1.97,2.05.4.26.6.23.87-.14.27-.36.08-.58-.22-.78-.24-.16-.47-.31-.75-.42-1.79-.68-2.52-2.21-3.03-3.88-.19-.62.15-1.12.76-1.33.97-.32,1.95-.59,2.98-.53,1.37.08,2.72-.14,4.08-.23ZM45.71,8.62c-.21-.94-.05-1.84.05-2.75.16-1.45,1.45-2.34,2.84-1.9.27.08.5.32.77.02.19-.21.43-.4.55-.65.32-.7.04-1.08-.74-1.03-.25.02-.5.06-.75.12-1.48.37-2.73,1.16-3.88,2.14-.24.21-.47.42-.77.55-.5.21-.68.9-.26,1.23.84.64,1.41,1.53,2.19,2.27ZM45.2,35.75h.03c0,.54-.02,1.08,0,1.61.03.73.2,1.44.43,2.13.06.17.1.4.34.41.22,0,.3-.2.41-.35.06-.08.1-.16.15-.24.66-1.14.94-2.41,1.26-3.66.05-.2.03-.39-.22-.44-.78-.15-1.27-.64-1.61-1.33-.11-.22-.22-.51-.55-.4-.26.09-.24.34-.25.56,0,.57,0,1.14,0,1.71ZM60.47,36.69c0-.58,0-.95-.09-1.33-.35-1.76-1.12-3.36-1.88-4.97-.35-.74-.82-1.25-1.54-1.58-.14-.06-.27-.22-.41-.05-.14.18.02.28.14.38.12.1.25.24.39.26.59.12.69.53.78,1.04.25,1.48.77,2.87,1.38,4.24.29.65.6,1.31,1.23,2ZM38.97,8.85q.14-1.3-.68-2.13c-.42-.43-.77-.91-1.14-1.39-.31-.4-1.15-.5-1.52-.19-.16.13-.13.28-.03.41.16.2.34.37.5.56.87.99,2.13,1.56,2.86,2.73ZM54.15,6.5c-1.17.22-2.06.81-2.57,1.88-.31.64-.24.94.39,1.57.73-1.16,1.45-2.3,2.17-3.45ZM66.92,18.11c1.76.14,3.4.2,4.49-1.62-1.7.13-3.13.63-4.49,1.62ZM43.38,28.64c-.32.33-.48.71-.67,1.08-.23.45-.23.92-.14,1.39.04.22.19.46.47.33.49-.22,1.03-.45,1.3-.92.19-.34-.22-.68-.38-1.01-.13-.28-.22-.6-.58-.87ZM39.45,36.31l.19.05c.48-.74.96-1.48,1.44-2.22.44-.69.43-.73-.28-1.41-.72,1.11-1.12,2.32-1.35,3.58ZM39.18,7.06c.29-.35.51-.62.74-.88.16-.19.12-.34-.06-.47-.54-.39-1.14-.59-1.88-.69.26.83.72,1.41,1.21,2.05ZM34.45,24.91c1.05-.08,3.26-1.18,3.72-1.84-1.58.03-2.55,1.14-3.72,1.84ZM51.49,28.94c-.44-.76-.84-1.51-1.04-2.35-.06.39-.05.76-.11,1.13-.05.36-.29.68-.29,1.09.27.04.49.05.7.11.21.06.39.22.74.03ZM63.01,18c-.83,0-1.43.32-2.05.54-.31.11-.33.36-.18.62.14.25.31.26.54.07.48-.4,1.1-.62,1.69-1.23ZM47.59,24.13c-.03-.2-.05-.42-.1-.63-.07-.29.19-.77-.18-.83-.52-.08-.45.51-.56.82-.28.81-.23.84.65.75.06,0,.11-.06.19-.11ZM48.36,16.78c.45-.85.4-1.12-.24-1.51-.15-.09-.27-.15-.42-.02-.14.12-.14.27-.06.42.2.38.4.77.71,1.11ZM52.75,23.47c-.08.92.13,1.58.56,2.37.24-.94.22-1.64-.56-2.37ZM46.22,25.76c.04.06.08.12.11.18.5-.16,1-.32,1.49-.47.14-.04.35-.05.31-.26-.03-.22-.21-.31-.42-.26-.57.15-1.08.41-1.5.81ZM58.49,23.75c.21-1.04-.61-1.39-.96-1.99.05.73.29,1.37.96,1.99ZM47.02,16.46s-.12.06-.14.11c-.1.22.34.81.59.8.05,0,.13-.05.15-.09.09-.22-.37-.83-.6-.81ZM41.84,27.96s.01-.05.02-.08c-.04,0-.09-.02-.13-.01,0,0-.01.05-.02.07.04,0,.09.01.13.02Z"/>
    </g>
  </g>
</svg>